<svg width="95" height="13" viewBox="0 0 95 13" fill="none" xmlns="http://www.w3.org/2000/svg">
<path fill-rule="evenodd" clip-rule="evenodd" d="M6.95483 11.6266C9.5973 11.6266 10.8321 9.155 10.8321 7.31332C10.8321 4.8575 8.94893 2.18096 6.17894 2.18096C3.78933 2.18096 2.25485 4.24336 2.25485 6.52576C2.25485 9.72184 4.69129 11.6266 6.95483 11.6266ZM6.76464 0.921875C10.6902 0.921875 12.6677 3.88147 12.6677 6.8726C12.6677 10.556 9.81919 12.9014 6.46422 12.9014C2.63378 12.9014 0.260742 9.81643 0.260742 6.79378C0.260742 4.16453 2.63378 0.921875 6.76464 0.921875Z" fill="white"/>
<path fill-rule="evenodd" clip-rule="evenodd" d="M15.7397 4.55811C15.6929 4.77882 15.6446 4.98305 15.6446 5.2826C15.6446 5.80214 15.7239 6.19556 15.7714 6.41556L16.5314 9.8947L18.1293 4.55811H19.4275L20.7884 9.94199L21.722 6.25862C21.8013 5.94403 21.8805 5.62872 21.8805 5.21954C21.8805 4.95152 21.8488 4.81035 21.7854 4.55811H23.6052C22.9251 5.73908 22.8776 5.88097 22.7349 6.49438L21.1205 12.8228H19.9181L18.4622 7.04546L16.7843 12.8228H15.5819L14.2045 6.55745C13.9992 5.62872 13.7456 5.18801 13.3501 4.55811H15.7397Z" fill="white"/>
<path fill-rule="evenodd" clip-rule="evenodd" d="M26.9618 0.9375C26.7565 1.97658 26.6772 2.92108 26.6772 3.61332V10.3831C26.6772 11.5476 26.7565 11.8787 27.1837 12.8225H24.4929C24.6673 12.5079 25.0945 11.721 25.0945 10.9493L25.1103 3.2199C25.1103 2.4646 24.9835 2.05541 24.7624 1.37821L26.9618 0.9375Z" fill="white"/>
<path fill-rule="evenodd" clip-rule="evenodd" d="M32.8813 6.24257C32.5333 5.94375 32.0744 5.5188 31.346 5.5188C30.6026 5.5188 30.1437 6.03834 30.1437 6.62023C30.1437 7.25012 30.4758 7.47084 31.5521 8.17885C32.4065 8.74569 32.9763 9.31253 32.9763 10.462C32.9763 11.8629 32.0427 12.839 30.2698 12.839C30.0644 12.839 29.2893 12.839 28.2764 12.5394L28.3866 10.4147C29.1466 11.5003 29.5421 11.941 30.2071 11.941C31.0615 11.941 31.4253 11.3434 31.4253 10.8239C31.4253 10.1151 30.9822 9.83207 30.112 9.28099C29.5738 8.93487 28.5292 8.22615 28.5292 6.904C28.5292 5.99033 29.3202 4.58936 31.2985 4.58936C31.9476 4.58936 32.2963 4.7162 32.8813 4.93619V6.24257Z" fill="white"/>
<path fill-rule="evenodd" clip-rule="evenodd" d="M39.9879 8.76178C39.9879 7.0928 38.9274 5.59723 37.4556 5.59723C36.3793 5.59723 35.4457 6.63632 35.4457 8.36836C35.4457 10.7296 37.0284 11.8948 38.5478 11.7687C39.1018 11.328 39.9879 10.5404 39.9879 8.76178ZM41.4755 8.43142C41.4755 12.0202 38.4527 12.9489 37.4398 12.9489C35.826 12.9489 33.7527 11.8948 33.7527 9.02979C33.7527 5.59723 36.0789 4.88922 37.4398 4.47932C39.7026 4.40121 41.4755 5.99065 41.4755 8.43142Z" fill="white"/>
<path fill-rule="evenodd" clip-rule="evenodd" d="M44.7843 4.55816V6.36831C44.8952 6.19561 45.37 5.39301 45.4968 5.23535C46.0817 4.52734 46.9678 4.52734 47.0629 4.52734C48.6298 4.52734 48.9627 5.92832 49.057 6.36831C49.1521 6.19561 49.5793 5.37724 49.6903 5.21959C50.2126 4.57392 50.9402 4.52734 51.2882 4.52734C52.4913 4.52734 52.966 5.32995 53.077 5.54995C53.2981 5.95985 53.2981 6.39985 53.2981 6.80975V11.5953C53.2981 12.0833 53.2981 12.2875 53.5517 12.8228H51.4942C51.7319 12.3198 51.7319 12.2567 51.7319 11.5953V6.91939C51.7319 6.21138 51.0828 5.73913 50.4662 5.73913C49.7378 5.73913 49.3265 6.25867 49.057 6.58903V11.4691C49.057 12.1463 49.1363 12.4136 49.3423 12.8228H47.1422C47.3799 12.4294 47.4584 12.2567 47.4584 11.4691V7.39235C47.4584 6.90362 47.4584 6.5575 47.2531 6.27444C47.0161 5.94408 46.6674 5.73913 46.3036 5.73913C45.6862 5.73913 45.259 6.11678 44.7843 6.57326V11.4534C44.7843 11.9887 44.7843 12.2725 45.1322 12.8228H42.8853C43.1381 12.3033 43.2174 12.1141 43.2174 11.5164V6.22714C43.2174 5.36148 43.0589 4.96806 42.8853 4.55816H44.7843Z" fill="white"/>
<path fill-rule="evenodd" clip-rule="evenodd" d="M60.2479 7.9271C60.2947 6.43153 59.7414 5.58163 58.6017 5.58163C57.4145 5.58163 56.988 6.52612 56.8612 7.9271H60.2479ZM60.3264 12.4611C59.8199 12.6338 59.2667 12.823 58.4915 12.823C55.8483 12.823 55.1841 10.6975 55.1841 8.84006C55.1841 6.10117 56.5601 4.58984 58.5066 4.58984C59.8682 4.58984 60.9445 5.40821 61.1815 6.9826C61.2918 7.64404 61.2766 7.99016 61.2766 8.88735L56.908 8.98195C56.9563 9.54878 57.0982 11.4693 58.9338 11.4693C59.5988 11.4693 60.1686 11.2486 61.103 10.8236L60.3264 12.4611Z" fill="white"/>
<path fill-rule="evenodd" clip-rule="evenodd" d="M75.4897 1.03223L74.6663 2.84238C73.3695 2.32284 72.9416 2.21248 71.5649 2.21248V10.0049C71.5649 10.9494 71.6441 11.9104 71.897 12.8233H69.4757C69.6508 12.0831 69.8085 11.2174 69.8085 9.81643V2.21248C69.0168 2.19672 68.3209 2.19672 66.0256 3.0158L66.6589 1.03223H75.4897Z" fill="white"/>
<path fill-rule="evenodd" clip-rule="evenodd" d="M79.0201 7.9271C79.0669 6.43153 78.5136 5.58163 77.3739 5.58163C76.1867 5.58163 75.7602 6.52612 75.6334 7.9271H79.0201ZM79.0986 12.4611C78.5922 12.6338 78.0389 12.823 77.2637 12.823C74.6205 12.823 73.9563 10.6975 73.9563 8.84006C73.9563 6.10117 75.3323 4.58984 77.2788 4.58984C78.6404 4.58984 79.7167 5.40821 79.9537 6.9826C80.064 7.64404 80.0488 7.99016 80.0488 8.88735L75.6802 8.98195C75.7285 9.54878 75.8704 11.4693 77.7068 11.4693C78.371 11.4693 78.9408 11.2486 79.8752 10.8236L79.0986 12.4611Z" fill="white"/>
<path fill-rule="evenodd" clip-rule="evenodd" d="M86.8707 6.47905C86.5069 6.10068 86.0639 5.6442 85.0985 5.6442C83.2622 5.6442 82.7406 7.29742 82.7406 8.50921C82.7406 10.9184 84.2909 11.5792 85.3514 11.5792C86.0639 11.5792 86.6488 11.4057 87.1243 11.2646L86.2692 12.5867C85.8895 12.6971 85.5257 12.7917 84.9242 12.7917C82.7248 12.7917 81.0786 11.1542 81.0786 8.91839C81.0786 7.78543 81.6168 4.58936 85.4148 4.58936C86.1424 4.58936 86.5855 4.66818 87.0127 4.74701L86.8707 6.47905Z" fill="white"/>
<path fill-rule="evenodd" clip-rule="evenodd" d="M90.4327 0.953613C90.2583 2.08729 90.1164 2.96872 90.1164 4.14898V6.40056L90.9701 5.42454C91.2554 5.09347 91.635 4.65275 92.6004 4.65275C93.3287 4.65275 94.088 5.09347 94.3733 5.77066C94.642 6.35327 94.6262 6.95164 94.6103 7.77V10.9811C94.6103 11.8002 94.6103 12.0202 94.7847 12.8386H92.8533C93.091 11.9729 93.091 11.6268 93.091 11.1073V8.00577C93.091 7.50199 93.1068 7.04551 92.8533 6.68362C92.5377 6.24291 91.9196 6.08526 91.5716 6.08526C90.955 6.08526 90.5112 6.3375 90.1164 6.57327V10.0524C90.1164 11.9106 90.2101 12.2094 90.3851 12.8228H88.1216C88.3752 12.2252 88.5963 11.6899 88.5963 9.95781V3.97627C88.5963 2.70071 88.5012 2.24423 88.2167 1.37856L90.4327 0.953613Z" fill="white"/>
</svg>
