<svg width="47" height="49" viewBox="0 0 47 49" fill="none" xmlns="http://www.w3.org/2000/svg">
<path fill-rule="evenodd" clip-rule="evenodd" d="M43.1748 27.8431C43.7677 27.8431 44.2497 28.3225 44.2497 28.9123C44.2497 29.5013 43.7677 29.9815 43.1748 29.9815C42.5827 29.9815 42.1007 29.5013 42.1007 28.9123C42.1007 28.3225 42.5827 27.8431 43.1748 27.8431ZM27.8704 10.0604C28.4626 10.0604 28.9452 10.5399 28.9452 11.1296C28.9452 11.7187 28.4626 12.1981 27.8704 12.1981C27.2782 12.1981 26.7962 11.7187 26.7962 11.1296C26.7962 10.5399 27.2782 10.0604 27.8704 10.0604ZM43.1748 26.3469C41.7527 26.3469 40.5958 27.4977 40.5958 28.9123C40.5958 29.8755 41.1382 30.706 41.9292 31.1446C40.5216 38.5629 34.6379 44.5423 26.3013 44.5423C23.0407 44.5423 20.0099 43.5498 17.4827 41.8486C17.451 40.8052 17.9135 39.1147 21.0315 38.497C35.5774 37.9531 36.3295 32.1808 36.3295 32.1808C34.3231 30.6838 18.0223 37.2945 18.0223 37.2945C19.0259 35.2995 23.1632 33.4277 31.0632 31.1833C43.9788 28.4394 42.8499 19.3334 42.8499 19.3334C42.8499 19.3334 33.6964 24.3224 29.6973 25.5701C25.699 26.8177 16.7681 32.6803 16.7681 32.6803C25.4202 22.4521 34.1978 23.2002 41.4711 16.8389C48.7429 10.4775 46.7373 0 46.7373 0C45.7345 7.60896 18.6491 21.7032 14.8871 27.1917C11.9593 31.4635 12.2979 35.2056 12.5918 36.6546C11.1604 34.2296 10.3355 31.3932 10.3355 28.3613C10.3355 19.6853 17.0728 12.6052 25.5341 12.1988C25.9425 13.0796 26.833 13.6951 27.8704 13.6951C29.2925 13.6951 30.4502 12.5443 30.4502 11.1297C30.4502 9.71436 29.2925 8.56348 27.8704 8.56348C26.833 8.56348 25.9433 9.17905 25.5341 10.059C25.4779 10.059 25.4253 10.059 25.3576 10.059C14.8655 10.059 6.35955 18.6791 6.35955 29.3129C6.35955 31.0141 6.57999 32.6631 6.98919 34.2346C5.30486 34.3234 4.25234 34.8838 4.25234 34.8838C3.97498 34.8509 3.77542 34.7814 3.6263 34.6918L4.54626 33.4592L3.27834 33.9601C3.34101 33.4234 3.79199 32.8573 3.79199 32.8573C-2.63986 36.6761 1.17977 42.4691 1.17977 42.4691C1.17977 44.184 2.91957 43.997 2.91957 43.997C2.42825 42.1381 4.5369 42.0313 5.64706 42.7966C7.03817 43.7555 7.59866 44.2943 9.36151 45.385C13.1372 48.6327 20.2239 47.8552 20.2239 47.8552V47.8495C21.8578 48.3131 23.5774 48.5661 25.3576 48.5661C35.2099 48.5661 43.3096 40.9643 44.2605 31.232C45.1401 30.8228 45.7546 29.9407 45.7546 28.9123C45.7546 27.4977 44.5977 26.3469 43.1748 26.3469Z" fill="white"/>
</svg>
