<svg width="98" height="81" viewBox="0 0 98 81" fill="none" xmlns="http://www.w3.org/2000/svg">
<mask id="mask0" mask-type="alpha" maskUnits="userSpaceOnUse" x="25" y="0" width="48" height="50">
<path fill-rule="evenodd" clip-rule="evenodd" d="M25.5898 0.573303H72.5266V49.1389H25.5898V0.573303Z" fill="white"/>
</mask>
<g mask="url(#mask0)">
<path fill-rule="evenodd" clip-rule="evenodd" d="M68.7107 28.416C69.3036 28.416 69.7855 28.8954 69.7855 29.4852C69.7855 30.0743 69.3036 30.5544 68.7107 30.5544C68.1185 30.5544 67.6366 30.0743 67.6366 29.4852C67.6366 28.8954 68.1185 28.416 68.7107 28.416M53.4062 10.6334C53.9984 10.6334 54.4811 11.1128 54.4811 11.7025C54.4811 12.2916 53.9984 12.771 53.4062 12.771C52.8141 12.771 52.3321 12.2916 52.3321 11.7025C52.3321 11.1128 52.8141 10.6334 53.4062 10.6334M68.7107 26.9197C67.2886 26.9197 66.1316 28.0706 66.1316 29.4852C66.1316 30.4483 66.6741 31.2789 67.4651 31.7174C66.0574 39.1358 60.1738 45.1152 51.8372 45.1152C48.5766 45.1152 45.5458 44.1227 43.0186 42.4214C42.9869 41.3781 43.4494 39.6876 46.5674 39.0699C61.1132 38.526 61.8653 32.7537 61.8653 32.7537C59.859 31.2567 43.5582 37.8674 43.5582 37.8674C44.5617 35.8723 48.6991 34.0006 56.5991 31.7561C69.5147 29.0122 68.3858 19.9063 68.3858 19.9063C68.3858 19.9063 59.2322 24.8953 55.2332 26.1429C51.2349 27.3906 42.304 33.2531 42.304 33.2531C50.9561 23.025 59.7336 23.7731 67.0069 17.4118C74.2788 11.0504 72.2731 0.572876 72.2731 0.572876C71.2703 8.18184 44.1849 22.2761 40.423 27.7646C37.4952 32.0363 37.8338 35.7785 38.1277 37.2275C36.6963 34.8024 35.8714 31.9661 35.8714 28.9341C35.8714 20.2581 42.6087 13.178 51.0699 12.7717C51.4784 13.6524 52.3688 14.268 53.4062 14.268C54.8283 14.268 55.986 13.1171 55.986 11.7025C55.986 10.2872 54.8283 9.13636 53.4062 9.13636C52.3688 9.13636 51.4791 9.75193 51.0699 10.6319C51.0137 10.6319 50.9612 10.6319 50.8934 10.6319C40.4013 10.6319 31.8954 19.252 31.8954 29.8858C31.8954 31.587 32.1159 33.2359 32.5251 34.8075C30.8407 34.8963 29.7882 35.4567 29.7882 35.4567C29.5109 35.4237 29.3113 35.3542 29.1622 35.2647L30.0821 34.0321L28.8142 34.533C28.8769 33.9963 29.3279 33.4301 29.3279 33.4301C22.896 37.249 26.7157 43.042 26.7157 43.042C26.7157 44.7569 28.4555 44.5698 28.4555 44.5698C27.9641 42.711 30.0728 42.6042 31.1829 43.3695C32.5741 44.3283 33.1345 44.8672 34.8974 45.9579C38.6731 49.2056 45.7598 48.4281 45.7598 48.4281V48.4223C47.3937 48.886 49.1133 49.1389 50.8934 49.1389C60.7458 49.1389 68.8454 41.5371 69.7963 31.8049C70.676 31.3957 71.2905 30.5135 71.2905 29.4852C71.2905 28.0706 70.1335 26.9197 68.7107 26.9197" fill="white"/>
</g>
<path fill-rule="evenodd" clip-rule="evenodd" d="M8.49095 67.1993C11.1334 67.1993 12.3682 64.7278 12.3682 62.8861C12.3682 60.4302 10.4851 57.7537 7.71507 57.7537C5.32546 57.7537 3.79098 59.8161 3.79098 62.0985C3.79098 65.2946 6.22741 67.1993 8.49095 67.1993M8.30076 56.4946C12.2263 56.4946 14.2038 59.4542 14.2038 62.4454C14.2038 66.1287 11.3553 68.4742 8.00035 68.4742C4.16992 68.4742 1.79688 65.3892 1.79688 62.3665C1.79688 59.7373 4.16991 56.4946 8.30076 56.4946" fill="white"/>
<path fill-rule="evenodd" clip-rule="evenodd" d="M17.2758 60.1309C17.229 60.3516 17.1807 60.5559 17.1807 60.8554C17.1807 61.375 17.26 61.7684 17.3075 61.9884L18.0676 65.4675L19.6654 60.1309H20.9636L22.3245 65.5148L23.2581 61.8314C23.3374 61.5168 23.4166 61.2015 23.4166 60.7924C23.4166 60.5243 23.3849 60.3832 23.3215 60.1309H25.1413C24.4612 61.3119 24.4137 61.4538 24.271 62.0672L22.6566 68.3956H21.4542L19.9983 62.6183L18.3204 68.3956H17.1181L15.7406 62.1303C15.5353 61.2015 15.2817 60.7608 14.8862 60.1309H17.2758Z" fill="white"/>
<path fill-rule="evenodd" clip-rule="evenodd" d="M28.4977 56.5104C28.2923 57.5495 28.2131 58.494 28.2131 59.1863V65.9561C28.2131 67.1206 28.2923 67.4516 28.7195 68.3954H26.0288C26.2031 68.0808 26.6304 67.294 26.6304 66.5222L26.6462 58.7928C26.6462 58.0375 26.5194 57.6283 26.2982 56.9512L28.4977 56.5104Z" fill="white"/>
<path fill-rule="evenodd" clip-rule="evenodd" d="M34.4174 61.8154C34.0694 61.5166 33.6105 61.0916 32.8822 61.0916C32.1387 61.0916 31.6798 61.6112 31.6798 62.193C31.6798 62.8229 32.0119 63.0437 33.0882 63.7517C33.9426 64.3185 34.5125 64.8853 34.5125 66.0348C34.5125 67.4358 33.5788 68.4118 31.8059 68.4118C31.6006 68.4118 30.8254 68.4118 29.8125 68.1122L29.9227 65.9875C30.6828 67.0731 31.0783 67.5139 31.7432 67.5139C32.5976 67.5139 32.9614 66.9162 32.9614 66.3967C32.9614 65.6879 32.5184 65.4049 31.6481 64.8538C31.11 64.5077 30.0654 63.799 30.0654 62.4768C30.0654 61.5631 30.8564 60.1622 32.8346 60.1622C33.4837 60.1622 33.8324 60.289 34.4174 60.509V61.8154Z" fill="white"/>
<path fill-rule="evenodd" clip-rule="evenodd" d="M41.5242 64.3344C41.5242 62.6654 40.4638 61.1698 38.992 61.1698C37.9157 61.1698 36.982 62.2089 36.982 63.9409C36.982 66.3022 38.5648 67.4674 40.0841 67.3412C40.6381 66.9005 41.5242 66.113 41.5242 64.3344M43.0119 64.004C43.0119 67.5928 39.989 68.5215 38.9761 68.5215C37.3624 68.5215 35.2891 67.4674 35.2891 64.6024C35.2891 61.1698 37.6153 60.4618 38.9761 60.0519C41.239 59.9738 43.0119 61.5632 43.0119 64.004" fill="white"/>
<path fill-rule="evenodd" clip-rule="evenodd" d="M46.3204 60.1309V61.9411C46.4313 61.7684 46.9061 60.9658 47.0329 60.8081C47.6179 60.1001 48.504 60.1001 48.5991 60.1001C50.166 60.1001 50.4988 61.5011 50.5932 61.9411C50.6883 61.7684 51.1155 60.95 51.2264 60.7923C51.7487 60.1467 52.4763 60.1001 52.8243 60.1001C54.0274 60.1001 54.5021 60.9027 54.6131 61.1227C54.8342 61.5326 54.8342 61.9726 54.8342 62.3825V67.168C54.8342 67.656 54.8342 67.8603 55.0878 68.3956H53.0303C53.2681 67.8925 53.2681 67.8295 53.2681 67.168V62.4921C53.2681 61.7841 52.619 61.3119 52.0023 61.3119C51.274 61.3119 50.8626 61.8314 50.5932 62.1618V67.0419C50.5932 67.7191 50.6724 67.9864 50.8784 68.3956H48.6783C48.916 68.0022 48.9946 67.8295 48.9946 67.0419V62.9651C48.9946 62.4764 48.9946 62.1303 48.7892 61.8472C48.5522 61.5168 48.2036 61.3119 47.8397 61.3119C47.2224 61.3119 46.7951 61.6895 46.3204 62.146V67.0261C46.3204 67.5614 46.3204 67.8452 46.6684 68.3956H44.4214C44.6743 67.876 44.7535 67.6868 44.7535 67.0892V61.7999C44.7535 60.9342 44.595 60.5408 44.4214 60.1309H46.3204Z" fill="white"/>
<path fill-rule="evenodd" clip-rule="evenodd" d="M61.784 63.4999C61.8308 62.0043 61.2775 61.1544 60.1379 61.1544C58.9506 61.1544 58.5241 62.0989 58.3973 63.4999H61.784ZM61.8625 68.0338C61.3561 68.2065 60.8028 68.3957 60.0276 68.3957C57.3844 68.3957 56.7202 66.2703 56.7202 64.4128C56.7202 61.6739 58.0962 60.1626 60.0428 60.1626C61.4043 60.1626 62.4806 60.981 62.7177 62.5554C62.8279 63.2168 62.8127 63.5629 62.8127 64.4601L58.4442 64.5547C58.4924 65.1215 58.6344 67.0421 60.47 67.0421C61.1349 67.0421 61.7048 66.8213 62.6391 66.3964L61.8625 68.0338Z" fill="white"/>
<path fill-rule="evenodd" clip-rule="evenodd" d="M77.0261 56.6049L76.2026 58.4151C74.9059 57.8955 74.478 57.7852 73.1013 57.7852V65.5776C73.1013 66.5221 73.1805 67.4831 73.4334 68.396H71.0121C71.1871 67.6558 71.3449 66.7901 71.3449 65.3891V57.7852C70.5532 57.7694 69.8572 57.7694 67.562 58.5885L68.1953 56.6049H77.0261Z" fill="white"/>
<path fill-rule="evenodd" clip-rule="evenodd" d="M80.556 63.4999C80.6028 62.0043 80.0495 61.1544 78.9098 61.1544C77.7226 61.1544 77.2961 62.0989 77.1693 63.4999H80.556ZM80.6345 68.0338C80.128 68.2065 79.5748 68.3957 78.7996 68.3957C76.1564 68.3957 75.4922 66.2703 75.4922 64.4128C75.4922 61.6739 76.8682 60.1626 78.8147 60.1626C80.1763 60.1626 81.2526 60.981 81.4896 62.5554C81.5998 63.2168 81.5847 63.5629 81.5847 64.4601L77.2161 64.5547C77.2644 65.1215 77.4063 67.0421 79.2427 67.0421C79.9069 67.0421 80.4767 66.8213 81.4111 66.3964L80.6345 68.0338Z" fill="white"/>
<path fill-rule="evenodd" clip-rule="evenodd" d="M88.4069 62.0519C88.0431 61.6735 87.6 61.217 86.6347 61.217C84.7983 61.217 84.2767 62.8702 84.2767 64.082C84.2767 66.4913 85.8271 67.152 86.8875 67.152C87.6 67.152 88.185 66.9786 88.6605 66.8374L87.8053 68.1595C87.4257 68.2699 87.0619 68.3645 86.4603 68.3645C84.2609 68.3645 82.6147 66.727 82.6147 64.4912C82.6147 63.3582 83.1529 60.1622 86.9509 60.1622C87.6785 60.1622 88.1216 60.241 88.5488 60.3198L88.4069 62.0519Z" fill="white"/>
<path fill-rule="evenodd" clip-rule="evenodd" d="M91.9688 56.5262C91.7945 57.6599 91.6525 58.5413 91.6525 59.7215V61.9731L92.5062 60.9971C92.7915 60.666 93.1712 60.2253 94.1365 60.2253C94.8649 60.2253 95.6242 60.666 95.9095 61.3432C96.1782 61.9258 96.1623 62.5242 96.1465 63.3426V66.5537C96.1465 67.3728 96.1465 67.5928 96.3208 68.4112H94.3894C94.6271 67.5455 94.6271 67.1994 94.6271 66.6798V63.5783C94.6271 63.0746 94.643 62.6181 94.3894 62.2562C94.0738 61.8155 93.4557 61.6578 93.1078 61.6578C92.4911 61.6578 92.0473 61.9101 91.6525 62.1458V65.625C91.6525 67.4831 91.7462 67.782 91.9213 68.3954H89.6577C89.9113 67.7977 90.1325 67.2624 90.1325 65.5304V59.5488C90.1325 58.2733 90.0374 57.8168 89.7528 56.9511L91.9688 56.5262Z" fill="white"/>
<mask id="mask1" mask-type="alpha" maskUnits="userSpaceOnUse" x="1" y="72" width="96" height="9">
<path fill-rule="evenodd" clip-rule="evenodd" d="M20.9547 74.0181C21.1189 74.0912 21.3992 74.2558 21.5346 74.3473V74.3473C21.7471 74.1281 21.9597 73.844 22.1426 73.5326V73.5326H22.9538V74.0632C22.9538 74.1731 22.9538 74.2742 22.9351 74.393V74.393H20.9547V74.9516H22.8097C22.6066 75.5101 22.0951 76.1144 20.8682 76.5719V76.5719C21.0325 76.673 21.2349 76.8928 21.3221 77.0389V77.0389C22.3357 76.5992 22.9156 76.0864 23.2442 75.5647V75.5647C23.7268 75.8761 24.4422 76.3616 24.7217 76.5903V76.5903L25.2239 76.1233C24.9544 75.9403 23.8428 75.2998 23.466 75.1072V75.1072C23.4855 75.0519 23.5049 75.0069 23.515 74.9516V74.9516H25.3017V74.393H23.6209C23.6397 74.2742 23.6397 74.1731 23.6397 74.0632V74.0632V73.5326H25.0603V72.9837H22.433C22.5295 72.7638 22.626 72.5432 22.693 72.3152V72.3152L22.0461 72.1957C21.8242 72.8819 21.4474 73.5688 20.9547 74.0181V74.0181ZM3.12447 73.0287H1.99414V75.7942H5.51047V73.0287H3.7714C3.8773 72.8 3.99328 72.5432 4.09991 72.2783V72.2783L3.37589 72.1957C3.31754 72.4251 3.221 72.7638 3.12447 73.0287V73.0287ZM2.60289 74.1731H4.87291V73.5135H2.60289V74.1731ZM2.60289 75.308H4.87291V74.6402H2.60289V75.308ZM62.4411 73.3954H59.7266V74.0359H62.132C61.5334 75.2172 60.6638 76.2974 59.5335 77.0205V77.0205C59.669 77.1584 59.8908 77.4049 59.9874 77.5511V77.5511C60.5767 77.1584 61.0983 76.6729 61.5521 76.1506V76.1506V77.4876C61.5521 78.3568 61.4657 79.3646 60.6638 80.0966V80.0966C60.818 80.197 61.0795 80.4817 61.166 80.6279V80.6279C61.7358 80.1246 62.0254 79.4377 62.1515 78.7692V78.7692H66.2953V79.7211C66.2953 79.8583 66.237 79.9048 66.0734 79.9136V79.9136C65.8998 79.9136 65.3199 79.9232 64.6722 79.8952V79.8952C64.7781 80.0877 64.8847 80.3622 64.9143 80.5637V80.5637C65.7348 80.5637 66.2759 80.5541 66.5943 80.4449V80.4449C66.9033 80.3349 67.0006 80.1328 67.0006 79.7211V79.7211V75.0984H62.3258C62.5376 74.7597 62.7307 74.393 62.9144 74.0359V74.0359H68.1302V73.3954H63.204C63.3488 73.0656 63.4749 72.7174 63.5801 72.3787V72.3787L62.8661 72.2141C62.7502 72.6081 62.6054 73.0014 62.4411 73.3954V73.3954ZM62.2675 76.6361H66.296V75.7115H62.2675V76.6361ZM62.2675 77.5053V77.2315H66.2953V78.1834H62.2379C62.2581 77.9451 62.2675 77.7252 62.2675 77.5053V77.5053ZM36.5545 72.223V72.6989H34.9797V73.1482H36.5545V73.588H35.1922V74.0359H36.5545V74.4934H34.8738V74.942H36.5545V75.4186H37.2303V74.942H39.0954V74.4934H37.2303V74.0359H38.7662V73.588H37.2303V73.1482H38.9016V72.6989H37.2303V72.223H36.5545ZM32.4301 72.223V72.6989H30.8849V73.1482H32.4301V73.588H31.1067V74.0359H32.4301V74.4749H30.7689V74.9242H32.4301V75.4186H33.1059V74.9242H34.7095V74.4749H33.1059V74.0359H34.4588V73.588H33.1059V73.1482H34.5835V72.6989H33.1059V72.223H32.4301ZM13.064 73.999H11.1801V74.6129H12.6289V75.7115H11.3249V76.3158H12.6289V76.7918C12.6289 77.0109 12.6188 77.2581 12.5993 77.4964V77.4964H11.1311V78.1103H12.5129C12.3681 78.8607 11.9913 79.6111 11.1124 80.0878V80.0878C11.2572 80.2066 11.469 80.4449 11.5663 80.591V80.591C12.6094 79.9683 13.0446 79.0444 13.2182 78.1103V78.1103H14.5315V77.4964H13.2953C13.3147 77.2581 13.3241 77.0109 13.3241 76.7918V76.7918V76.3158H14.5034V75.7115H13.3241V74.6129H14.5898V73.999H13.7304C13.9912 73.5326 14.2808 72.9468 14.512 72.4155V72.4155L13.8269 72.223C13.6526 72.7542 13.3435 73.4869 13.064 73.999V73.999ZM49.6235 75.8857C49.7481 76.0407 49.9513 76.3889 50.0291 76.5541V76.5541C50.3583 76.2332 50.6854 75.8488 50.9851 75.437V75.437V80.5637H51.6904V74.4026C52.0672 73.7791 52.405 73.1113 52.6853 72.4429V72.4429L51.9994 72.251C51.4591 73.6426 50.5701 75.0069 49.6235 75.8857V75.8857ZM11.4409 72.4613C11.634 72.9188 11.8652 73.5053 11.9524 73.8891V73.8891L12.5806 73.6876C12.474 73.3128 12.2521 72.7358 12.0302 72.2967V72.2967L11.4409 72.4613ZM82.8317 72.4517V73.1387H84.6277C85.15 74.5214 86.0771 75.8392 87.1686 76.6088V76.6088C87.3033 76.4162 87.5547 76.1144 87.729 75.9772V75.9772C86.5987 75.2718 85.6326 73.8986 85.1694 72.4517V72.4517H82.8317ZM78.7844 76.0591C78.9775 76.1868 79.2872 76.4708 79.422 76.6088V76.6088C80.4947 75.6747 81.5565 74.2196 82.2517 72.7174V72.7174L81.4701 72.4886C80.8707 73.8706 79.8665 75.2076 78.7844 76.0591V76.0591ZM55.2254 72.5344V73.1844H56.3464C56.7037 74.3746 57.3607 75.519 58.1712 76.2059V76.2059C58.2778 75.986 58.4904 75.6835 58.6359 75.519V75.519C57.8139 74.9331 57.167 73.7887 56.8867 72.5344V72.5344H55.2254ZM40.8237 72.5528V75.8215C40.8237 77.1584 40.7754 78.9795 40.1285 80.2619V80.2619C40.2927 80.3254 40.5823 80.4817 40.7077 80.5814V80.5814C41.1623 79.6665 41.3546 78.4579 41.4231 77.3319V77.3319L41.6932 77.8809C42.0505 77.6706 42.4468 77.4514 42.8524 77.2131V77.2131V79.7026C42.8524 79.8221 42.8041 79.8679 42.6881 79.8768V79.8768C42.5721 79.8768 42.2054 79.8768 41.7897 79.8679V79.8679C41.8769 80.042 41.9634 80.3349 41.9929 80.4995V80.4995C42.6017 80.4995 42.959 80.4899 43.1902 80.3807V80.3807C43.4222 80.2619 43.4993 80.0693 43.4993 79.7122V79.7122V72.5528H40.8237ZM41.4713 73.1755H42.8524V75.3824C42.6017 75.0888 42.1759 74.6764 41.7998 74.3561V74.3561L41.4713 74.5944V73.1755ZM41.4713 75.8119V74.7679C41.8481 75.1168 42.2724 75.5647 42.4857 75.8577V75.8577L42.8524 75.5736V76.6176C42.3207 76.8648 41.8186 77.0847 41.4324 77.2315V77.2315C41.4612 76.7276 41.4713 76.2428 41.4713 75.8119V75.8119ZM71.965 72.5897H69.656V80.5637H70.2943V73.2124H71.6948C71.5017 73.816 71.2114 74.6033 70.9312 75.2629V75.2629C71.6264 75.9956 71.8 76.6265 71.8 77.1216V77.1216C71.8 77.3961 71.7424 77.6521 71.5983 77.7532V77.7532C71.5205 77.8085 71.4146 77.8262 71.2986 77.8351V77.8351C71.1444 77.8536 70.9607 77.8447 70.7381 77.8262V77.8262C70.8447 78.0004 70.9117 78.2564 70.9218 78.4299V78.4299C71.125 78.4394 71.3757 78.4394 71.5594 78.4121V78.4121C71.7532 78.3937 71.9361 78.3384 72.0716 78.238V78.238C72.3324 78.0639 72.4484 77.6617 72.4484 77.1851V77.1851C72.4484 76.6176 72.274 75.9492 71.5795 75.1899V75.1899C71.9066 74.4667 72.2546 73.5688 72.5449 72.8273V72.8273L72.0716 72.5617L71.965 72.5897ZM44.9293 72.5617V73.5688C44.9293 74.2196 44.7557 74.9604 43.7024 75.5285V75.5285C43.8285 75.6289 44.0792 75.8672 44.1664 76.0038V76.0038C45.3349 75.3544 45.5957 74.3841 45.5957 73.5777V73.5777V73.2028H47.1892V74.6764C47.1892 75.336 47.324 75.592 47.9615 75.592V75.592H48.5609C48.7151 75.592 48.8988 75.5832 49.0148 75.547V75.547C48.996 75.3906 48.9665 75.153 48.9571 74.9789V74.9789C48.8411 75.0069 48.6474 75.0246 48.5415 75.0246V75.0246H48.0105C47.8852 75.0246 47.8657 74.942 47.8657 74.6948V74.6948V72.5617H44.9293ZM73.0182 72.617V79.3831C73.0182 79.7573 72.815 79.9498 72.6602 80.0236V80.0236C72.7761 80.1513 72.931 80.4353 72.9793 80.5814V80.5814C73.1724 80.4633 73.462 80.3718 75.4518 79.8583V79.8583C75.4229 79.7122 75.4129 79.4377 75.4129 79.2356V79.2356L73.7134 79.6296V76.6176H74.6406C75.1233 78.4299 76.0216 79.831 77.5287 80.5084V80.5084C77.6447 80.3349 77.8673 80.0598 78.0215 79.9321V79.9321C77.2485 79.6296 76.6304 79.1263 76.1563 78.4763V78.4763C76.6887 78.1738 77.3263 77.7716 77.8183 77.3865V77.3865L77.345 76.9113C76.9488 77.2404 76.34 77.6706 75.8386 77.9908V77.9908C75.5966 77.5791 75.4129 77.112 75.2688 76.6176V76.6176H77.2391V72.617H73.0182ZM73.7134 74.3199H76.5432V73.2206H73.7134V74.3199ZM73.7134 76.0222H76.5432V74.8874H73.7134V76.0222ZM17.3714 72.6443V73.267H19.0809V76.4804C18.4051 77.0758 17.6999 77.6617 17.2453 78.0181V78.0181L17.5745 78.5405C18.0377 78.1472 18.56 77.6706 19.0809 77.1946V77.1946V79.6753C19.0809 79.831 19.0326 79.8768 18.8785 79.8863V79.8863C18.7337 79.8863 18.2214 79.8952 17.6898 79.8768V79.8768C17.7769 80.042 17.8634 80.3165 17.8828 80.4899V80.4899C18.627 80.4899 19.091 80.4817 19.3712 80.3718V80.3718C19.6414 80.2707 19.7379 80.0878 19.7379 79.6849V79.6849V72.6443H17.3714ZM14.7152 72.6443V73.267H16.3959V76.7276C15.7007 77.3319 14.9666 77.9266 14.4926 78.3022V78.3022L14.8312 78.8054C15.2944 78.4025 15.8549 77.9177 16.3959 77.4227V77.4227V79.6569C16.3959 79.8133 16.3376 79.8501 16.1928 79.8583V79.8583C16.058 79.8679 15.5653 79.8679 15.0624 79.8501V79.8501C15.1402 80.0236 15.2274 80.2796 15.2461 80.4537V80.4537C15.9615 80.4537 16.4154 80.4449 16.6855 80.3349V80.3349C16.947 80.2339 17.0335 80.0598 17.0335 79.6569V79.6569V72.6443H14.7152ZM8.0982 72.6443V73.2308H9.41295V76.4988C8.8712 77.0758 8.32081 77.6159 7.97285 77.9546V77.9546L8.32081 78.4579C8.65868 78.1007 9.04482 77.7163 9.41295 77.3134V77.3134V79.6938C9.41295 79.831 9.37405 79.8583 9.25734 79.8679V79.8679C9.14136 79.8679 8.73576 79.8768 8.31144 79.8583V79.8583C8.40798 80.0324 8.49443 80.3069 8.52396 80.4899V80.4899C9.09309 80.4899 9.48932 80.4715 9.73065 80.3622V80.3622C9.97199 80.2523 10.0498 80.0598 10.0498 79.6938V79.6938V72.6443H8.0982ZM5.84763 72.6443V73.2308H7.23874V76.6818C6.67898 77.2219 6.10914 77.7252 5.72228 78.0557V78.0557L6.07024 78.5494C6.43765 78.2202 6.84324 77.8447 7.23874 77.4514V77.4514V79.6753C7.23874 79.7853 7.20056 79.8221 7.09394 79.831V79.831C6.96859 79.831 6.58173 79.831 6.15741 79.8133V79.8133C6.25394 79.9867 6.34039 80.2796 6.36993 80.4449V80.4449C6.92969 80.4538 7.32591 80.4353 7.55789 80.3254V80.3254C7.79923 80.2154 7.86694 80.0236 7.86694 79.6753V79.6753V72.6443H5.84763ZM52.3957 75.6016C52.5412 75.7293 52.7912 76.0407 52.8683 76.1868V76.1868C53.7868 75.4002 54.5014 74.1827 54.8977 72.8273V72.8273L54.2017 72.6627C53.8631 73.8624 53.2364 74.9147 52.3957 75.6016V75.6016ZM88.9365 72.8088V73.4589H95.8805V79.5661C95.8805 79.7395 95.833 79.7853 95.6493 79.7941V79.7941C95.4562 79.8037 94.7898 79.8037 94.1227 79.7853V79.7853C94.2394 79.9778 94.3446 80.3165 94.3741 80.5179V80.5179C95.2336 80.5179 95.833 80.5084 96.1708 80.3896V80.3896C96.4993 80.2707 96.606 80.0324 96.606 79.5661V79.5661V72.8088H88.9365ZM25.6979 76.1321H29.0687V72.9557H25.6979V76.1321ZM26.3736 75.5094H28.3641V73.5688H26.3736V75.5094ZM8.10828 74.2462C8.35971 74.8047 8.63995 75.5647 8.7653 76.014V76.014L9.27751 75.8488C9.15144 75.437 8.85175 74.6948 8.59096 74.1363V74.1363L8.10828 74.2462ZM5.94416 74.2646C6.19631 74.8321 6.47583 75.6016 6.59181 76.0502V76.0502L7.10403 75.8761C6.98804 75.4459 6.68835 74.7044 6.42756 74.1363V74.1363L5.94416 74.2646ZM17.4002 74.3473C17.6415 74.9331 17.9217 75.6931 18.0478 76.1506V76.1506L18.5982 75.986C18.4628 75.5559 18.1638 74.7959 17.9023 74.2373V74.2373L17.4002 74.3473ZM14.8312 74.393C15.0819 74.97 15.3715 75.7477 15.4976 76.197V76.197L16.0285 76.014C15.9032 75.5736 15.5941 74.8232 15.3239 74.2646V74.2646L14.8312 74.393ZM89.0042 75.0246H94.7797V74.4114H89.0042V75.0246ZM80.6106 78.6135C80.2425 79.0444 79.963 79.3455 79.7022 79.4008V79.4008C79.8081 79.6111 79.9529 79.9778 79.9824 80.1246V80.1246C80.3585 79.9963 80.8902 79.9683 85.8941 79.6391V79.6391C86.0966 79.9683 86.2796 80.2619 86.415 80.5179V80.5179L87.1297 80.1424C86.6664 79.3278 85.7486 78.0454 84.9663 77.0656V77.0656L84.2804 77.3681C84.6666 77.8536 85.1017 78.449 85.4777 79.0164V79.0164L81.0155 79.254C82.0111 78.1649 83.0147 76.746 83.846 75.3264V75.3264L83.0442 75.0069C82.2424 76.5623 81.0069 78.1922 80.6106 78.6135V78.6135ZM31.5318 75.5559V76.0318H37.4918V76.5623H30.6918V77.011H37.4918V77.5702H31.4742V78.0454H38.1963V77.011H39.2107V76.5623H38.1963V75.5559H31.5318ZM3.2599 75.8215C3.21092 76.0222 3.1432 76.2428 3.04666 76.4708V76.4708H1.70381V77.011H2.77651C2.49627 77.4691 2.10004 77.9082 1.51074 78.1834V78.1834C1.65627 78.2749 1.82989 78.4667 1.91706 78.604V78.604C2.66052 78.2202 3.1432 77.6337 3.46234 77.011V77.011H4.04155C4.45723 77.4691 4.95936 78.0734 5.22015 78.4394V78.4394L5.68409 78.0823C5.47085 77.8167 5.11425 77.3961 4.76629 77.011V77.011H5.91535V76.4708H3.70368C3.7714 76.251 3.83912 76.0318 3.89675 75.8215V75.8215H3.2599ZM53.3524 75.9492V76.5808H54.4625C54.2795 78.2653 53.6996 79.3831 52.3762 80.042V80.042C52.521 80.1608 52.7724 80.4169 52.8683 80.5541V80.5541C54.2795 79.7491 54.9452 78.5125 55.1865 76.5808V76.5808H56.8586C56.7426 78.7508 56.6158 79.5661 56.4235 79.7764V79.7764C56.3363 79.8768 56.2499 79.8863 56.1051 79.8863V79.8863C55.9401 79.8863 55.5734 79.8863 55.1577 79.8501V79.8501C55.255 80.0236 55.3227 80.2796 55.3414 80.4715V80.4715C55.7665 80.4995 56.1822 80.4995 56.4235 80.4715V80.4715C56.685 80.4537 56.868 80.3807 57.0322 80.1881V80.1881C57.3118 79.8679 57.4378 78.9153 57.5733 76.2605V76.2605C57.5733 76.1602 57.5819 75.9492 57.5819 75.9492V75.9492H53.3524ZM89.6122 76.0038V79.5845H90.3175V78.9153H94.1227V76.0038H89.6122ZM90.3175 78.3117H93.4181V76.6088H90.3175V78.3117ZM48.0681 76.2332H43.992V76.8744H44.4841L44.3494 76.9195C44.6973 77.7436 45.18 78.4579 45.7988 79.0444V79.0444C45.1411 79.4746 44.3976 79.7853 43.6347 79.9778V79.9778C43.7702 80.1246 43.9438 80.3807 44.0209 80.5637V80.5637C44.8522 80.3165 45.6339 79.9683 46.3197 79.4923V79.4923C46.9472 79.9683 47.6921 80.3349 48.5314 80.5726V80.5726C48.6387 80.3896 48.8318 80.1246 49.0054 79.9778V79.9778C48.1935 79.7853 47.4889 79.4835 46.8802 79.0622V79.0622C47.6726 78.3848 48.2807 77.5053 48.6474 76.3793V76.3793L48.1841 76.2059L48.0681 76.2332ZM45.0258 76.8744H47.7108C47.4018 77.5702 46.9191 78.1649 46.3392 78.6504V78.6504C45.7794 78.1472 45.3349 77.5422 45.0258 76.8744V76.8744ZM22.3552 76.8279V80.5814H23.0612V80.2428H27.5227V80.5637H28.2481V76.8279H22.3552ZM23.0612 78.2475H27.5234V77.3865H23.0612V78.2475ZM23.0612 79.6849H27.5234V78.7781H23.0612V79.6849ZM3.44289 77.7163V78.6593H2.03304V79.1994H3.44289V80.5726H4.08045V79.1994H5.47085V78.6593H4.08045V77.7163H3.44289ZM34.2168 78.4025C34.6613 78.7139 35.2217 79.1537 35.5106 79.4193V79.4193L35.994 79.0164C35.6951 78.7419 35.1252 78.3384 34.68 78.0557V78.0557L34.2168 78.4025ZM37.1049 78.7235C37.7043 79.1994 38.4088 79.8768 38.7273 80.3069V80.3069L39.3267 79.9683C38.9794 79.5196 38.264 78.8607 37.6747 78.4025V78.4025L37.1049 78.7235ZM32.9517 78.4299V79.6296C32.9517 80.2981 33.2125 80.4817 34.2463 80.4817V80.4817H36.1684C36.95 80.4817 37.1827 80.2428 37.2692 79.282V79.282C37.0761 79.2451 36.7865 79.1536 36.6316 79.0526V79.0526C36.5927 79.7853 36.5156 79.8768 36.1006 79.8768V79.8768H34.2852C33.7528 79.8768 33.6563 79.8399 33.6563 79.6207V79.6207V78.4299H32.9517ZM30.6723 79.9867L31.2804 80.3349C31.763 79.9136 32.1398 79.2636 32.4107 78.7324V78.7324L31.8019 78.4667C31.57 78.9795 31.155 79.6111 30.6723 79.9867V79.9867Z" fill="white"/>
</mask>
<g mask="url(#mask1)">
<path fill-rule="evenodd" clip-rule="evenodd" d="M-0.348145 82.3895H98.4644V70.4333H-0.348145V82.3895Z" fill="white"/>
</g>
</svg>
