<svg width="454" height="99" viewBox="0 0 454 99" fill="none" xmlns="http://www.w3.org/2000/svg">
<path fill-rule="evenodd" clip-rule="evenodd" d="M87.7738 56.7562C88.98 56.7562 89.9617 57.7341 89.9617 58.9357C89.9617 60.1373 88.98 61.1152 87.7738 61.1152C86.5676 61.1152 85.5866 60.1373 85.5866 58.9357C85.5866 57.7341 86.5676 56.7562 87.7738 56.7562ZM56.6211 20.506C57.8273 20.506 58.809 21.4847 58.809 22.6863C58.809 23.8872 57.8273 24.8651 56.6211 24.8651C55.4148 24.8651 54.4339 23.8872 54.4339 22.6863C54.4339 21.4847 55.4148 20.506 56.6211 20.506ZM87.7738 53.7049C84.8791 53.7049 82.5235 56.0522 82.5235 58.9357C82.5235 60.8987 83.6275 62.5921 85.2375 63.4869C82.3731 78.6079 70.3963 90.7967 53.4277 90.7967C46.7898 90.7967 40.6204 88.7728 35.4759 85.3064C35.4118 83.1792 36.3532 79.7321 42.7003 78.4739C72.3086 77.3648 73.8402 65.5983 73.8402 65.5983C69.7558 62.547 36.5749 76.0226 36.5749 76.0226C38.6167 71.9547 47.0395 68.1413 63.12 63.5643C89.4097 57.9707 87.1124 39.4097 87.1124 39.4097C87.1124 39.4097 68.4797 49.5803 60.3405 52.1226C52.2006 54.6656 34.0221 66.6156 34.0221 66.6156C51.6341 45.7662 69.501 47.2918 84.3048 34.3244C99.1086 21.3571 95.0249 0 95.0249 0C92.9831 15.5097 37.8509 44.2405 30.1939 55.4277C24.2332 64.1364 24.9227 71.7647 25.5215 74.7185C22.6074 69.7738 20.9283 63.993 20.9283 57.8123C20.9283 40.1274 34.6417 25.6953 51.8637 24.8672C52.6972 26.661 54.5101 27.9157 56.621 27.9157C59.5164 27.9157 61.8713 25.5698 61.8713 22.6863C61.8713 19.802 59.5164 17.4554 56.621 17.4554C54.5101 17.4554 52.6986 18.7101 51.8645 20.5039C51.75 20.5046 51.6442 20.5046 51.5053 20.5046C30.1493 20.5046 12.8359 38.0762 12.8359 59.7523C12.8359 63.2209 13.2835 66.5819 14.1162 69.7845C10.6882 69.9659 8.54566 71.1087 8.54566 71.1087C7.9814 71.0413 7.57549 70.8994 7.27105 70.7158L9.14446 68.2051L6.56357 69.226C6.69024 68.1305 7.60859 66.9762 7.60859 66.9762C-5.4837 74.7615 2.29207 86.5703 2.29207 86.5703C2.29207 90.0669 5.83306 89.6855 5.83306 89.6855C4.83338 85.8957 9.12431 85.6777 11.3842 87.2378C14.2156 89.1915 15.3577 90.2898 18.9462 92.5138C26.6313 99.1348 41.0565 97.5489 41.0565 97.5489V97.5381C44.3809 98.4831 47.883 99 51.5053 99C71.5608 99 88.048 83.5033 89.9833 63.6647C91.774 62.8302 93.0248 61.0313 93.0248 58.9357C93.0248 56.0522 90.6692 53.7049 87.7738 53.7049Z" fill="#55D6D2"/>
<path fill-rule="evenodd" clip-rule="evenodd" d="M138.967 57.7549C148.454 57.7549 152.885 48.7281 152.885 41.9999C152.885 33.0294 146.126 23.2531 136.183 23.2531C127.606 23.2531 122.096 30.7859 122.096 39.1231C122.096 50.7969 130.843 57.7549 138.967 57.7549ZM138.284 18.6523C152.374 18.6523 159.475 29.463 159.475 40.3897C159.475 53.8449 149.249 62.4132 137.206 62.4132C123.458 62.4132 114.937 51.1429 114.937 40.1024C114.937 30.4973 123.458 18.6523 138.284 18.6523Z" fill="#55D6D2"/>
<path fill-rule="evenodd" clip-rule="evenodd" d="M170.885 31.5654C170.716 32.3504 170.545 33.0782 170.545 34.1431C170.545 35.9917 170.829 37.3914 170.998 38.1763L173.713 50.5571L179.423 31.5654H184.059L188.92 50.7251L192.256 37.6153C192.539 36.4968 192.822 35.3759 192.822 33.9191C192.822 32.9662 192.709 32.4624 192.483 31.5654H198.984C196.554 35.7678 196.384 36.2717 195.874 38.4562L190.109 60.9785H185.812L180.61 40.418L174.617 60.9785H170.32L165.4 38.6813C164.666 35.3759 163.762 33.8072 162.348 31.5654H170.885Z" fill="#55D6D2"/>
<path fill-rule="evenodd" clip-rule="evenodd" d="M209.708 18.6523C208.995 22.3522 208.72 25.7158 208.72 28.182V52.288C208.72 56.4359 208.995 57.6136 210.478 60.9784H201.139C201.744 59.8568 203.226 57.0522 203.226 54.3059L203.281 26.7803C203.281 24.0889 202.843 22.6323 202.074 20.2221L209.708 18.6523Z" fill="#55D6D2"/>
<path fill-rule="evenodd" clip-rule="evenodd" d="M231.695 37.4588C230.471 36.393 228.857 34.8761 226.299 34.8761C223.683 34.8761 222.07 36.7296 222.07 38.8062C222.07 41.0511 223.239 41.8376 227.021 44.363C230.026 46.3847 232.029 48.4041 232.029 52.5025C232.029 57.4971 228.746 60.9785 222.516 60.9785C221.792 60.9785 219.067 60.9785 215.506 59.9115L215.894 52.3342C218.565 56.207 219.956 57.7788 222.294 57.7788C225.297 57.7788 226.577 55.646 226.577 53.7938C226.577 51.2661 225.019 50.2575 221.959 48.2931C220.067 47.0578 216.396 44.5325 216.396 39.8159C216.396 36.5601 219.177 31.5654 226.132 31.5654C228.413 31.5654 229.637 32.0142 231.695 32.8007V37.4588Z" fill="#55D6D2"/>
<path fill-rule="evenodd" clip-rule="evenodd" d="M257.659 47.1657C257.659 41.0903 253.911 35.645 248.709 35.645C244.906 35.645 241.606 39.4292 241.606 45.7337C241.606 54.3318 247.199 58.5742 252.569 58.1148C254.527 56.5097 257.659 53.6445 257.659 47.1657ZM262.918 45.9628C262.918 59.0313 252.233 62.4133 248.654 62.4133C242.949 62.4133 235.62 58.5742 235.62 48.1407C235.62 35.645 243.844 33.0662 248.654 31.5757C256.653 31.2881 262.918 37.0783 262.918 45.9628Z" fill="#55D6D2"/>
<path fill-rule="evenodd" clip-rule="evenodd" d="M274.006 31.677V38.0955C274.402 37.4808 276.096 34.6352 276.549 34.0764C278.639 31.5654 281.801 31.5654 282.141 31.5654C287.733 31.5654 288.919 36.5327 289.258 38.0955C289.597 37.4808 291.122 34.5795 291.517 34.0217C293.381 31.7327 295.98 31.5654 297.223 31.5654C301.515 31.5654 303.21 34.4122 303.605 35.193C304.396 36.6442 304.396 38.207 304.396 39.6583V56.6247C304.396 58.3548 304.396 59.0799 305.301 60.9785H297.957C298.803 59.1926 298.803 58.9683 298.803 56.6247V40.0487C298.803 37.5377 296.488 35.8634 294.285 35.8634C291.686 35.8634 290.219 37.7039 289.258 38.8763V56.1774C289.258 58.5779 289.54 59.5272 290.275 60.9785H282.423C283.27 59.583 283.552 58.9683 283.552 56.1774V41.723C283.552 39.9917 283.552 38.7659 282.818 37.7597C281.971 36.5896 280.728 35.8634 279.429 35.8634C277.226 35.8634 275.701 37.2031 274.006 38.8205V56.1216C274.006 58.0202 274.006 59.0241 275.249 60.9785H267.228C268.132 59.1357 268.415 58.4664 268.415 56.3447V37.5935C268.415 34.5237 267.85 33.1282 267.228 31.677H274.006Z" fill="#55D6D2"/>
<path fill-rule="evenodd" clip-rule="evenodd" d="M329.676 43.4882C329.843 38.1456 327.885 35.1084 323.854 35.1084C319.657 35.1084 318.146 38.4828 317.699 43.4882H329.676ZM329.955 59.6847C328.164 60.3029 326.205 60.9785 323.463 60.9785C314.117 60.9785 311.766 53.3855 311.766 46.7491C311.766 36.9642 316.634 31.5654 323.519 31.5654C328.333 31.5654 332.138 34.4891 332.977 40.1138C333.369 42.4766 333.314 43.713 333.314 46.9188L317.866 47.2561C318.033 49.2805 318.537 56.1417 325.029 56.1417C327.381 56.1417 329.395 55.3549 332.699 53.8363L329.955 59.6847Z" fill="#55D6D2"/>
<path fill-rule="evenodd" clip-rule="evenodd" d="M385.756 18.6523L382.758 25.151C378.03 23.2864 376.473 22.8911 371.456 22.8911V50.8634C371.456 54.2527 371.745 57.6997 372.667 60.9784H363.846C364.48 58.322 365.057 55.2139 365.057 50.1846V22.8911C362.173 22.8358 359.638 22.8358 351.275 25.7734L353.581 18.6523H385.756Z" fill="#55D6D2"/>
<path fill-rule="evenodd" clip-rule="evenodd" d="M397.201 43.4882C397.368 38.1456 395.411 35.1084 391.379 35.1084C387.182 35.1084 385.672 38.4828 385.224 43.4882H397.201ZM397.48 59.6847C395.69 60.3029 393.73 60.9785 390.989 60.9785C381.643 60.9785 379.291 53.3855 379.291 46.7491C379.291 36.9642 384.159 31.5654 391.045 31.5654C395.858 31.5654 399.664 34.4891 400.503 40.1138C400.894 42.4766 400.839 43.713 400.839 46.9188L385.391 47.2561C385.559 49.2805 386.062 56.1417 392.555 56.1417C394.906 56.1417 396.921 55.3549 400.224 53.8363L397.48 59.6847Z" fill="#55D6D2"/>
<path fill-rule="evenodd" clip-rule="evenodd" d="M425.081 38.3401C423.783 36.985 422.205 35.3477 418.763 35.3477C412.219 35.3477 410.358 41.2761 410.358 45.6214C410.358 54.2602 415.885 56.632 419.665 56.632C422.205 56.632 424.291 56.0103 425.984 55.5025L422.938 60.2451C421.583 60.64 420.286 60.9785 418.143 60.9785C410.301 60.9785 404.434 55.1076 404.434 47.0894C404.434 43.0251 406.352 31.5654 419.892 31.5654C422.485 31.5654 424.066 31.8475 425.588 32.1296L425.081 38.3401Z" fill="#55D6D2"/>
<path fill-rule="evenodd" clip-rule="evenodd" d="M438.515 18.6523C437.896 22.6893 437.39 25.8277 437.39 30.0327V38.0496L440.43 34.5739C441.444 33.3963 442.794 31.8266 446.23 31.8266C448.821 31.8266 451.523 33.3963 452.537 35.8064C453.494 37.8815 453.439 40.0115 453.381 42.9269V54.3633C453.381 57.2775 453.381 58.063 454 60.9784H447.131C447.975 57.8938 447.975 56.6601 447.975 54.8103V43.7684C447.975 41.9734 448.032 40.3487 447.131 39.0579C446.006 37.4894 443.809 36.928 442.569 36.928C440.373 36.928 438.798 37.8255 437.39 38.6658V51.0557C437.39 57.6709 437.726 58.7353 438.345 60.9224H430.294C431.194 58.7913 431.983 56.8854 431.983 50.7196V29.4165C431.983 24.8765 431.646 23.2496 430.631 20.1672L438.515 18.6523Z" fill="#55D6D2"/>
<path fill-rule="evenodd" clip-rule="evenodd" d="M124.539 85.7797V88.8636H129.114V91.9136H124.539V96.3869H120.97V91.9136H116.118V88.8636H120.97V85.7797H124.539ZM119.662 75.1726V76.3512H125.569V75.1726H119.662ZM119.662 70.4583V71.6369H125.569V70.4583H119.662ZM145.653 66.1806V92.3319C145.653 94.0501 145.382 95.081 144.364 95.6652C143.345 96.2838 141.852 96.3869 139.782 96.3869C139.714 95.3903 139.238 93.7408 138.797 92.813C140.019 92.8817 141.275 92.8473 141.682 92.8473C142.09 92.8473 142.225 92.7099 142.225 92.2975V85.8714C141.309 86.9023 140.359 87.9332 139.51 88.8954L137.847 86.1463V92.2288C137.847 93.9126 137.575 94.9436 136.591 95.5277C135.607 96.1807 134.181 96.2494 132.179 96.2494C132.077 95.2872 131.704 93.6033 131.228 92.6411C132.348 92.7099 133.536 92.7099 133.944 92.7099C134.317 92.7099 134.453 92.5724 134.453 92.16V86.1806C133.401 87.2803 132.348 88.38 131.364 89.3765L129.701 86.4212L127.495 88.3456C126.612 87.0397 124.746 84.9091 123.32 83.2597H122.641C121.555 85.5277 119.79 87.4865 116.939 88.9641C116.532 88.2081 115.616 87.0397 114.937 86.4555C116.702 85.6308 117.958 84.5311 118.806 83.2597H115.514V80.27H120.265C120.469 79.617 120.639 78.9985 120.741 78.3799H116.634V67.452H120.232C120.503 66.4555 120.741 65.3902 120.809 64.5654L124.915 64.8403C124.576 65.7682 124.237 66.6617 123.897 67.452H129.362V78.3799H124.169C124.067 79.0328 123.897 79.6514 123.727 80.27H130.414V83.2597H127.325C128.242 84.325 129.226 85.3903 129.837 86.1806C131.059 85.0466 132.722 83.3284 134.453 81.5414V78.7579L132.213 79.4108C131.907 77.7614 131.093 74.9435 130.346 72.8816L132.858 72.2287C133.435 73.5689 134.012 75.2871 134.453 76.7304V69.617H130.414V66.1806H137.847V85.7683C138.967 84.5999 140.562 82.8473 142.225 80.9916V78.6892L139.68 79.3078C139.408 77.6239 138.729 74.7717 138.084 72.6411L140.664 72.16C141.207 73.8782 141.852 76.0775 142.225 77.6926V69.617H138.492V66.1806H145.653ZM170.463 65.9268V91.7583C170.463 93.6982 170.127 94.6171 168.985 95.1957C167.876 95.7402 166.163 95.8083 163.576 95.8083C163.509 94.8553 163.072 93.3579 162.669 92.4049C164.113 92.473 165.76 92.473 166.264 92.439C166.734 92.4049 166.902 92.2688 166.902 91.7583V85.5982C165.424 87.0957 163.945 88.6272 162.568 89.9545L161.258 87.3339V87.402H157.327C156.655 90.9074 155.11 94.1747 151.818 96.3869C151.247 95.502 150.071 94.1066 149.198 93.4259C151.684 92.0306 152.859 89.7843 153.43 87.402H149.198V83.8285H153.867C153.901 83.2839 153.901 82.7394 153.901 82.2629V80.9696H149.836V77.4642H153.901V74.7755H149.365V71.236H151.717C151.415 69.7726 150.575 67.5604 149.937 65.8247L153.128 64.8037C153.867 66.4713 154.707 68.6154 155.077 70.0448L151.818 71.236H155.446C156.32 69.2621 157.26 66.5734 157.764 64.5654L161.56 65.6545C160.754 67.5604 159.847 69.5343 159.041 71.236H161.426V74.7755H157.764V77.4642H161.023V80.9696H157.764V82.2629C157.764 82.7734 157.764 83.2839 157.731 83.8285H161.258V86.5852C162.703 85.36 164.853 83.352 166.902 81.378V69.6024H161.997V65.9268H170.463ZM162.193 73.4672L164.837 72.8154C165.63 74.8033 166.555 77.4428 166.919 79.007L164.11 79.8869C163.779 78.2901 162.953 75.5528 162.193 73.4672ZM181.095 65.744V92.1783C181.095 94.1956 180.712 95.1695 179.456 95.7608C178.271 96.3869 176.387 96.3869 173.632 96.3869C173.528 95.3782 173.109 93.7782 172.656 92.8391C174.26 92.9087 176.073 92.8739 176.597 92.8739C177.155 92.8391 177.329 92.6652 177.329 92.1435V85.2567C175.934 86.5784 174.539 87.8653 173.318 88.9783L171.644 85.8132C173.074 84.7001 175.167 82.8219 177.329 80.9089V69.5005H172.202V65.744H181.095ZM172.826 73.402L175.675 72.8154C176.405 74.8684 177.238 77.5732 177.551 79.1374L174.528 79.8869C174.25 78.2249 173.486 75.4876 172.826 73.402ZM207.086 71.5936L204.128 73.994C203.13 72.5992 200.813 70.5232 198.817 69.1283L201.597 66.9226C203.522 68.2525 206.017 70.1664 207.086 71.5936ZM207.086 80.9908L204.295 83.4226C203.227 82.0147 200.815 79.9669 198.817 78.527L201.435 76.3512C203.399 77.631 205.949 79.6149 207.086 80.9908ZM197.566 84.1488L195.152 87.3826C194.738 86.4193 193.91 84.9745 193.082 83.5984V97.5654H189.115V85.1809C187.977 87.8298 186.701 90.2723 185.355 91.9924C184.976 90.8227 184.079 89.1371 183.458 88.105C185.39 85.9033 187.322 82.2223 188.563 78.8854H183.907V75.0668H189.115V71.1794C187.77 71.3859 186.494 71.5923 185.217 71.7299C185.079 70.801 184.562 69.4594 184.114 68.5649C188.046 67.9801 192.358 66.9137 195.221 65.744L197.532 69.081C196.186 69.597 194.669 70.0098 193.082 70.3538V75.0668H197.635V78.8854H193.082V79.1606C194.082 80.1238 196.911 83.3576 197.566 84.1488ZM216.538 87.0758L212.526 87.792V96.3869H208.548V88.5082L198.281 90.2818L197.635 86.4277L208.548 84.5519V64.5654H212.526V83.8697L215.892 83.2899L216.538 87.0758ZM229.031 79.1388L229.533 82.8765C228.362 83.2194 227.157 83.5623 225.952 83.8709V92.0663C225.952 94.0551 225.584 95.0152 224.446 95.6668C223.342 96.284 221.735 96.3869 219.392 96.3869C219.225 95.3581 218.723 93.7465 218.255 92.6835C219.56 92.7178 220.932 92.7178 221.367 92.7178C221.869 92.7178 222.003 92.5463 222.003 92.032V84.9682L218.757 85.7911L217.719 81.9163C218.957 81.6763 220.396 81.3334 222.003 80.9219V74.8525H218.154V71.0806H222.003V64.5654H225.952V71.0806H229.232V74.8525H225.952V79.9275L229.031 79.1388ZM243.71 81.0654H235.44C236.393 83.2628 237.754 85.2603 239.456 86.9583C241.226 85.2936 242.689 83.3294 243.71 81.0654ZM246.633 77.0764L249.249 78.1643C247.941 82.8899 245.738 86.5956 242.846 89.4514C245.083 91.0153 247.734 92.1372 250.798 92.8851C249.938 93.7011 248.767 95.3329 248.182 96.3869C244.842 95.4009 241.985 94.0071 239.609 92.1032C236.924 93.9391 233.894 95.2989 230.555 96.2849C230.107 95.197 229.109 93.4971 228.352 92.6132C231.381 91.8992 234.17 90.8113 236.58 89.2814C234.549 87.0036 232.93 84.3178 231.691 81.1901L232.724 80.8841H230.934V77.2464H237.716V73.1667H230.314V69.427H237.716V64.5654H241.778V69.427H249.49V73.1667H241.778V77.2464H245.91L246.633 77.0764ZM277.971 83.4226H270.882C271.732 85.1821 272.973 86.7757 274.443 88.1369C275.88 86.8421 277.089 85.2485 277.971 83.4226ZM257.989 76.3512V78.3874C257.989 79.9054 257.955 81.6455 257.887 83.4226C258.909 83.0523 260.102 82.571 261.431 82.0157V77.9802L260.068 79.1649C259.625 78.4615 258.841 77.3878 257.989 76.3512ZM261.431 70.4583H257.887V74.5405L258.869 73.8821C259.712 74.6393 260.659 75.5281 261.431 76.3512V70.4583ZM280.307 79.1055L282.858 80.0599C281.769 84.3888 279.797 87.6951 277.212 90.2856C279.151 91.3763 281.395 92.2284 283.844 92.8079C282.96 93.66 281.803 95.262 281.259 96.3187C278.437 95.5347 276.022 94.3758 273.948 92.9101C271.771 94.3076 269.289 95.3643 266.535 96.1824C266.16 95.1598 265.242 93.66 264.528 92.8079C264.426 94.0009 264.086 94.8189 263.27 95.3302C262.318 95.9778 260.957 96.0801 258.985 96.0801C258.883 95.0575 258.441 93.3192 257.965 92.2966C259.019 92.3307 260.039 92.3307 260.413 92.3307C260.787 92.3307 260.923 92.1943 260.923 91.7853V85.0023C260.005 85.5818 259.155 86.1612 258.305 86.6725L257.319 84.2183C257.081 88.479 256.503 93.0465 255.21 96.3869C254.496 95.7733 252.83 94.8871 251.98 94.5462C253.748 89.8765 253.85 83.0594 253.85 78.117V65.744H264.562V75.9356C268.235 74.095 268.677 71.6408 268.677 69.4252V65.7781H280.103V73.2428C280.103 74.2313 280.171 74.6062 280.579 74.6062H281.905C282.347 74.6062 283.13 74.504 283.572 74.3676C283.674 75.3561 283.742 76.6854 283.878 77.6058C283.368 77.7762 282.62 77.8103 281.939 77.8103H280.205C276.974 77.8103 276.328 76.4469 276.328 73.1746V69.5275H272.35V69.5616C272.35 72.7997 271.363 76.515 266.909 78.7987C266.501 78.1511 265.31 76.924 264.562 76.2764V91.8535C264.562 92.1262 264.562 92.3989 264.528 92.6375C266.841 92.0921 268.983 91.274 270.853 90.2174C269.085 88.3086 267.623 86.093 266.501 83.5707L268.167 83.0594H265.718V79.2759H279.559L280.307 79.1055ZM294.163 64.5654L298.055 65.7986C297.116 68.162 296.005 70.594 294.719 72.9233V96.3869H290.653V79.1231C289.924 80.048 289.194 80.8701 288.464 81.6579C288.082 80.6303 286.97 78.4038 286.241 77.4105C289.368 74.3277 292.426 69.4637 294.163 64.5654ZM306.811 65.744H313.031C314.004 69.8297 316.297 73.8814 319.32 76.0945C318.555 77.0478 317.339 79.0907 316.783 80.4185C316.297 79.9759 315.845 79.5333 315.428 79.0566C315.393 79.4311 315.393 79.9078 315.393 80.1802C314.976 89.7476 314.594 93.4588 313.587 94.6845C312.892 95.6378 312.127 95.9442 311.085 96.1145C310.181 96.2847 308.757 96.3188 307.193 96.2507C307.089 95.1271 306.707 93.5609 306.116 92.5735C307.297 92.7097 308.374 92.7097 308.965 92.7097C309.452 92.7097 309.73 92.6076 310.042 92.2331C310.598 91.5181 310.946 88.9304 311.258 82.2911H306.88C305.977 89.1347 303.579 93.595 298.506 96.3869C298.02 95.6038 296.595 94.0716 295.761 93.3907C300.174 91.3478 302.189 87.6707 302.85 82.2911H299.653V78.7842C299.201 79.295 298.715 79.7716 298.228 80.2142C297.742 79.295 296.421 77.3542 295.692 76.469C298.506 74.1197 300.695 70.3745 301.877 66.2888L305.942 67.3102C304.657 71.5321 302.537 75.5838 299.861 78.5459H314.976C312.822 75.9923 311.05 72.7578 309.903 69.6254H306.811V65.744ZM344.129 81.0654V78.7083H332.315V81.0654H344.129ZM332.315 86.9583H344.129V84.6012H332.381C332.381 85.3627 332.348 86.1242 332.315 86.9583ZM352.399 72.4363H334.273C333.902 73.3484 333.429 74.2267 332.923 75.105H348.619V91.7927C348.619 93.7857 348.247 94.8667 346.863 95.4748C345.547 96.1166 343.623 96.1504 340.889 96.1504C340.72 95.0356 340.18 93.3466 339.674 92.2656C341.395 92.367 343.353 92.367 343.927 92.367C344.501 92.3332 344.703 92.1643 344.703 91.6913V89.6645H332.012C331.438 92.1981 330.358 94.664 328.265 96.3869C327.725 95.5423 326.206 93.8533 325.362 93.3128C328.265 90.7793 328.501 87.1647 328.501 84.0231V81.2869C327.218 82.6381 325.868 83.888 324.316 84.969C323.708 84.0569 322.459 82.6043 321.683 81.8612C325.092 79.5978 327.792 76.186 329.784 72.4363H322.459V68.6529H331.505C332.045 67.2679 332.484 65.9167 332.855 64.5654L337.007 65.5113C336.67 66.5585 336.298 67.6057 335.927 68.6529H352.399V72.4363ZM364.982 65.744L367.757 67.2796C366.832 70.1459 365.658 73.5924 364.697 76.2199C366.832 78.8815 367.259 81.3043 367.259 83.3176C367.259 85.5015 366.797 86.9688 365.658 87.7878C365.124 88.1972 364.448 88.402 363.665 88.5385C363.025 88.6408 362.171 88.6408 361.352 88.6067C361.352 87.6171 360.996 86.1157 360.427 85.1261C361.032 85.1602 361.566 85.1944 361.957 85.1602C362.313 85.1602 362.669 85.092 362.918 84.8873C363.345 84.5802 363.558 83.8294 363.558 82.874C363.558 81.2019 363.096 79.018 361.068 76.6294C361.744 74.5479 362.527 71.7839 363.096 69.5317H359.644V96.3869H355.943V65.9146H364.413L364.982 65.744ZM372.483 76.3512V78.7083H379.572V76.3512H372.483ZM379.572 70.4583H372.483V72.8154H379.572V70.4583ZM383.22 82.9443L385.896 85.8139C384.401 86.9754 382.595 88.2735 381.031 89.2642C382.49 91.2114 384.367 92.817 386.66 93.8418C385.757 94.6275 384.506 96.2331 383.915 97.3605C378.738 94.5592 375.958 89.2984 374.325 82.6027H372.24V92.2021L377.07 91.1431C377.035 92.3046 377.104 93.9785 377.243 94.8325C370.468 96.5406 369.182 97.053 368.348 97.5654C368.035 96.6772 367.167 95.0716 366.576 94.3884C367.306 93.9443 368.174 93.022 368.174 91.4164V66.9226H383.88V82.6027H377.869C378.251 83.935 378.703 85.1648 379.259 86.3263C380.683 85.2673 382.212 84.0033 383.22 82.9443ZM405.562 65.744H414.336C415.833 70.5969 419.001 75.4846 423.283 78.0843C422.343 78.9856 420.846 80.9614 420.15 82.244C416.181 79.2282 413.083 74.5833 411.133 70.0077H405.562V65.744ZM398.533 65.744L403.2 67.2191C400.638 72.8448 396.532 78.6421 392.742 82.244C391.935 81.3521 390.075 79.5683 389.023 78.745C392.742 75.692 396.427 70.718 398.533 65.744ZM409.29 84.2108L413.282 82.4032C416.069 86.1549 419.235 90.998 420.921 94.1699L416.688 96.3869C416.241 95.3978 415.622 94.2722 414.899 93.0444C398.279 94.3405 395.939 94.5451 394.253 95.159C393.978 94.3064 393.186 92.0212 392.567 90.8275C393.702 90.5205 394.632 89.5996 396.008 88.099C397.453 86.6324 401.754 80.8343 404.473 75.1726L409.256 77.1508C406.606 81.7551 403.303 86.3254 399.965 90.0089L412.593 89.1904C411.492 87.485 410.357 85.7115 409.29 84.2108ZM439.823 82.244H431.553V86.9583H439.823V82.244ZM444.549 91.5461H431.965V94.0297H428.009V79.8869H444.549V91.5461ZM445.73 72.8154V76.3512H425.646V72.8154H445.73ZM454 66.9226V91.3756C454 93.6755 453.585 94.8931 452.098 95.6033C450.681 96.3136 448.468 96.415 445.39 96.3812C445.252 95.1975 444.629 93.202 444.042 92.0182C445.978 92.1535 448.26 92.1197 448.917 92.0859C449.54 92.0859 449.782 91.9168 449.782 91.3418V70.7444H425.646V66.9226H454Z" fill="#55D6D2"/>
</svg>
