<svg width="454" height="103" viewBox="0 0 454 103" fill="none" xmlns="http://www.w3.org/2000/svg">
<path fill-rule="evenodd" clip-rule="evenodd" d="M87.7738 56.7562C88.98 56.7562 89.9617 57.7341 89.9617 58.9357C89.9617 60.1373 88.98 61.1152 87.7738 61.1152C86.5676 61.1152 85.5866 60.1373 85.5866 58.9357C85.5866 57.7341 86.5676 56.7562 87.7738 56.7562M56.6211 20.506C57.8273 20.506 58.809 21.4847 58.809 22.6863C58.809 23.8872 57.8273 24.8651 56.6211 24.8651C55.4148 24.8651 54.4339 23.8872 54.4339 22.6863C54.4339 21.4847 55.4148 20.506 56.6211 20.506M87.7738 53.7049C84.8791 53.7049 82.5235 56.0522 82.5235 58.9357C82.5235 60.8987 83.6275 62.5921 85.2375 63.4869C82.3731 78.6079 70.3963 90.7967 53.4277 90.7967C46.7898 90.7967 40.6204 88.7728 35.4759 85.3064C35.4118 83.1792 36.3532 79.7321 42.7003 78.4739C72.3086 77.3648 73.8402 65.5983 73.8402 65.5983C69.7558 62.547 36.5749 76.0226 36.5749 76.0226C38.6167 71.9547 47.0395 68.1413 63.12 63.5643C89.4097 57.9707 87.1124 39.4097 87.1124 39.4097C87.1124 39.4097 68.4797 49.5803 60.3405 52.1226C52.2006 54.6656 34.0221 66.6156 34.0221 66.6156C51.6341 45.7662 69.501 47.2918 84.3048 34.3244C99.1086 21.3571 95.0249 0 95.0249 0C92.9831 15.5097 37.8509 44.2405 30.1939 55.4277C24.2332 64.1364 24.9227 71.7647 25.5215 74.7185C22.6074 69.7738 20.9283 63.993 20.9283 57.8123C20.9283 40.1274 34.6417 25.6953 51.8637 24.8672C52.6972 26.661 54.5101 27.9157 56.621 27.9157C59.5164 27.9157 61.8713 25.5698 61.8713 22.6863C61.8713 19.802 59.5164 17.4554 56.621 17.4554C54.5101 17.4554 52.6986 18.7101 51.8645 20.5039C51.75 20.5046 51.6442 20.5046 51.5053 20.5046C30.1493 20.5046 12.8359 38.0762 12.8359 59.7523C12.8359 63.2209 13.2835 66.5819 14.1162 69.7845C10.6882 69.9659 8.54566 71.1087 8.54566 71.1087C7.9814 71.0413 7.57549 70.8994 7.27105 70.7158L9.14446 68.2051L6.56357 69.226C6.69024 68.1305 7.60859 66.9762 7.60859 66.9762C-5.4837 74.7615 2.29207 86.5703 2.29207 86.5703C2.29207 90.0669 5.83306 89.6855 5.83306 89.6855C4.83338 85.8957 9.12431 85.6777 11.3842 87.2378C14.2156 89.1915 15.3577 90.2898 18.9462 92.5138C26.6313 99.1348 41.0565 97.5489 41.0565 97.5489V97.5381C44.3809 98.4831 47.883 99 51.5053 99C71.5608 99 88.048 83.5032 89.9833 63.6647C91.774 62.8302 93.0248 61.0313 93.0248 58.9357C93.0248 56.0522 90.6692 53.7049 87.7738 53.7049" fill="#55D6D2"/>
<path fill-rule="evenodd" clip-rule="evenodd" d="M138.967 57.7549C148.454 57.7549 152.885 48.7281 152.885 41.9999C152.885 33.0294 146.126 23.2531 136.183 23.2531C127.606 23.2531 122.096 30.7859 122.096 39.1231C122.096 50.7969 130.843 57.7549 138.967 57.7549M138.284 18.6523C152.374 18.6523 159.475 29.463 159.475 40.3897C159.475 53.8449 149.249 62.4132 137.206 62.4132C123.458 62.4132 114.937 51.1429 114.937 40.1024C114.937 30.4973 123.458 18.6523 138.284 18.6523" fill="#55D6D2"/>
<path fill-rule="evenodd" clip-rule="evenodd" d="M170.885 31.5654C170.716 32.3504 170.545 33.0782 170.545 34.1431C170.545 35.9917 170.829 37.3914 170.998 38.1763L173.713 50.5571L179.423 31.5654H184.059L188.92 50.7251L192.256 37.6153C192.539 36.4968 192.822 35.3759 192.822 33.9191C192.822 32.9662 192.709 32.4624 192.483 31.5654H198.984C196.554 35.7678 196.384 36.2717 195.874 38.4562L190.109 60.9785H185.812L180.61 40.418L174.617 60.9785H170.32L165.4 38.6813C164.666 35.3759 163.762 33.8072 162.348 31.5654H170.885Z" fill="#55D6D2"/>
<path fill-rule="evenodd" clip-rule="evenodd" d="M209.708 18.6523C208.995 22.3522 208.72 25.7158 208.72 28.182V52.288C208.72 56.4359 208.995 57.6136 210.478 60.9784H201.139C201.744 59.8568 203.226 57.0522 203.226 54.3059L203.281 26.7803C203.281 24.0888 202.843 22.6323 202.074 20.2221L209.708 18.6523Z" fill="#55D6D2"/>
<path fill-rule="evenodd" clip-rule="evenodd" d="M231.695 37.4588C230.471 36.393 228.857 34.8761 226.299 34.8761C223.683 34.8761 222.07 36.7296 222.07 38.8062C222.07 41.0511 223.239 41.8376 227.021 44.363C230.026 46.3847 232.029 48.4041 232.029 52.5025C232.029 57.4971 228.746 60.9785 222.516 60.9785C221.792 60.9785 219.067 60.9785 215.506 59.9115L215.894 52.3342C218.565 56.207 219.956 57.7788 222.294 57.7788C225.297 57.7788 226.577 55.646 226.577 53.7938C226.577 51.2661 225.019 50.2575 221.959 48.2931C220.067 47.0578 216.396 44.5325 216.396 39.8159C216.396 36.5601 219.177 31.5654 226.132 31.5654C228.413 31.5654 229.637 32.0142 231.695 32.8007V37.4588Z" fill="#55D6D2"/>
<path fill-rule="evenodd" clip-rule="evenodd" d="M257.659 47.1657C257.659 41.0903 253.911 35.645 248.709 35.645C244.906 35.645 241.606 39.4292 241.606 45.7337C241.606 54.3318 247.199 58.5742 252.569 58.1148C254.527 56.5097 257.659 53.6445 257.659 47.1657M262.918 45.9628C262.918 59.0313 252.233 62.4133 248.654 62.4133C242.949 62.4133 235.62 58.5742 235.62 48.1407C235.62 35.645 243.844 33.0662 248.654 31.5757C256.653 31.2881 262.918 37.0783 262.918 45.9628" fill="#55D6D2"/>
<path fill-rule="evenodd" clip-rule="evenodd" d="M274.006 31.677V38.0955C274.402 37.4808 276.096 34.6352 276.549 34.0764C278.639 31.5654 281.801 31.5654 282.141 31.5654C287.733 31.5654 288.919 36.5327 289.258 38.0955C289.597 37.4808 291.122 34.5795 291.517 34.0217C293.381 31.7327 295.98 31.5654 297.223 31.5654C301.515 31.5654 303.21 34.4122 303.605 35.193C304.396 36.6442 304.396 38.207 304.396 39.6583V56.6247C304.396 58.3548 304.396 59.0799 305.301 60.9785H297.957C298.803 59.1926 298.803 58.9683 298.803 56.6247V40.0487C298.803 37.5377 296.488 35.8634 294.285 35.8634C291.686 35.8634 290.219 37.7039 289.258 38.8763V56.1774C289.258 58.5779 289.54 59.5272 290.275 60.9785H282.423C283.27 59.583 283.552 58.9683 283.552 56.1774V41.723C283.552 39.9917 283.552 38.7659 282.818 37.7597C281.971 36.5896 280.728 35.8634 279.429 35.8634C277.226 35.8634 275.701 37.2031 274.006 38.8205V56.1216C274.006 58.0202 274.006 59.0241 275.249 60.9785H267.228C268.132 59.1357 268.415 58.4664 268.415 56.3447V37.5935C268.415 34.5237 267.85 33.1282 267.228 31.677H274.006Z" fill="#55D6D2"/>
<path fill-rule="evenodd" clip-rule="evenodd" d="M329.676 43.4882C329.843 38.1456 327.885 35.1084 323.854 35.1084C319.657 35.1084 318.146 38.4828 317.699 43.4882H329.676ZM329.955 59.6847C328.164 60.3029 326.205 60.9785 323.463 60.9785C314.117 60.9785 311.766 53.3855 311.766 46.7491C311.766 36.9642 316.634 31.5654 323.519 31.5654C328.333 31.5654 332.138 34.4891 332.977 40.1138C333.369 42.4766 333.314 43.713 333.314 46.9188L317.866 47.2561C318.033 49.2805 318.537 56.1417 325.029 56.1417C327.381 56.1417 329.395 55.3549 332.699 53.8363L329.955 59.6847Z" fill="#55D6D2"/>
<path fill-rule="evenodd" clip-rule="evenodd" d="M385.756 18.6523L382.758 25.151C378.03 23.2864 376.473 22.8911 371.456 22.8911V50.8634C371.456 54.2527 371.745 57.6997 372.667 60.9784H363.846C364.48 58.322 365.057 55.2139 365.057 50.1846V22.8911C362.173 22.8358 359.638 22.8358 351.275 25.7734L353.581 18.6523H385.756Z" fill="#55D6D2"/>
<path fill-rule="evenodd" clip-rule="evenodd" d="M397.201 43.4882C397.368 38.1456 395.411 35.1084 391.379 35.1084C387.182 35.1084 385.672 38.4828 385.224 43.4882H397.201ZM397.48 59.6847C395.69 60.3029 393.73 60.9785 390.989 60.9785C381.643 60.9785 379.291 53.3855 379.291 46.7491C379.291 36.9642 384.159 31.5654 391.045 31.5654C395.858 31.5654 399.664 34.4891 400.503 40.1138C400.894 42.4766 400.839 43.713 400.839 46.9188L385.391 47.2561C385.559 49.2805 386.062 56.1417 392.555 56.1417C394.906 56.1417 396.921 55.3549 400.224 53.8363L397.48 59.6847Z" fill="#55D6D2"/>
<path fill-rule="evenodd" clip-rule="evenodd" d="M425.081 38.3401C423.783 36.985 422.205 35.3477 418.763 35.3477C412.219 35.3477 410.358 41.2761 410.358 45.6214C410.358 54.2602 415.885 56.632 419.665 56.632C422.205 56.632 424.291 56.0103 425.984 55.5025L422.938 60.2451C421.583 60.64 420.286 60.9785 418.143 60.9785C410.301 60.9785 404.434 55.1076 404.434 47.0894C404.434 43.0251 406.352 31.5654 419.892 31.5654C422.485 31.5654 424.066 31.8475 425.588 32.1296L425.081 38.3401Z" fill="#55D6D2"/>
<path fill-rule="evenodd" clip-rule="evenodd" d="M438.515 18.6523C437.896 22.6893 437.39 25.8277 437.39 30.0327V38.0496L440.43 34.5739C441.444 33.3963 442.794 31.8266 446.23 31.8266C448.821 31.8266 451.523 33.3963 452.537 35.8064C453.494 37.8815 453.439 40.0115 453.381 42.9269V54.3633C453.381 57.2775 453.381 58.063 454 60.9784H447.131C447.975 57.8938 447.975 56.6601 447.975 54.8103V43.7684C447.975 41.9734 448.032 40.3487 447.131 39.0579C446.006 37.4894 443.809 36.928 442.569 36.928C440.373 36.928 438.798 37.8255 437.39 38.6658V51.0557C437.39 57.6709 437.726 58.7353 438.345 60.9224H430.294C431.194 58.7913 431.983 56.8854 431.983 50.7196V29.4165C431.983 24.8765 431.646 23.2496 430.631 20.1672L438.515 18.6523Z" fill="#55D6D2"/>
<path d="M119.916 87.9841H115.894V90.4286H119.916V87.9841ZM119.916 91.546H115.584V93.9905H119.916V91.546ZM124.145 86.9016H120.707V95.2476H115V98.6698H120.707V102.756H124.145V98.6698H129.714V95.2476H124.145V86.9016ZM140.199 85.4349C139.477 87.4952 138.343 89.6254 137.071 91.4063V83.3048C137.793 83.7238 138.549 84.2476 138.996 84.5968C139.924 83.5492 140.955 82.1175 141.918 80.6159V85.9238L140.199 85.4349ZM125.176 76.8095H119.366V75.4825H125.176V76.8095ZM125.176 80.4413H119.366V79.0444H125.176V80.4413ZM125.176 84.073H119.366V82.6413H125.176V84.073ZM145.596 71.6762H137.896V75.4127H141.918V76.9841L140.371 76.4952C139.546 78.2413 138.343 80.1619 137.071 81.6635V71.6762H129.473V75.4127H133.461V76.9492L132.051 76.4952C131.226 78.3111 129.954 80.2667 128.682 81.8032V73.1079H124.213C124.523 72.3397 124.832 71.5016 125.141 70.6286L120.982 70.2095C120.879 71.0476 120.707 72.0952 120.5 73.1079H116.031V86.4127H128.682V83.3746C129.404 83.7937 130.195 84.3175 130.676 84.7016C131.57 83.6889 132.533 82.327 133.461 80.8603V86.0286L132.498 85.7841C131.742 87.7746 130.608 89.8349 129.37 91.546H124.935V93.9905H129.129C129.782 94.4095 130.47 94.8635 130.883 95.2127C131.742 94.2349 132.636 92.9778 133.461 91.581V98.4254C133.461 98.8794 133.323 99.054 132.876 99.054C132.498 99.0889 131.158 99.0889 129.851 99.019C130.367 100.032 130.883 101.743 130.986 102.756C133.152 102.756 134.664 102.651 135.73 102.022C136.796 101.394 137.071 100.311 137.071 98.4952V93.9905C137.689 94.3746 138.274 94.7587 138.652 95.073C139.718 93.781 140.887 91.9651 141.918 90.0444V98.3556C141.918 98.8794 141.746 99.054 141.265 99.054C140.783 99.0889 139.236 99.0889 137.758 99.019C138.308 100.032 138.858 101.813 138.996 102.86C141.333 102.86 142.949 102.756 144.084 102.092C145.253 101.463 145.596 100.346 145.596 98.4603V71.6762ZM124.97 87.9841V90.4286H129.129V87.9841H124.97Z" fill="#55D6D2"/>
<path d="M180.249 71.3968H171.895V75.1333H176.502V82.746C176.055 81.1746 175.333 79.254 174.542 77.6825L171.62 78.9397C172.549 80.8952 173.408 83.619 173.683 85.3302L176.502 84.1778V87.6349C174.508 89.2413 172.617 90.7429 171.139 91.7905V71.3968H162.82V75.1333H167.461V83.2349C167.048 81.5587 166.326 79.4635 165.501 77.7873L162.613 78.9746C163.542 81.0349 164.367 83.8635 164.607 85.6444L167.461 84.4921V89.4159L166.773 88.019C165.226 89.2413 163.679 90.4635 162.304 91.4762L162.098 88.6127L158.11 89.346C158.11 88.9619 158.11 88.6127 158.11 88.2635V87.0063H161.891V83.3746H158.11V80.6159H162.338V76.9841H160.207C160.963 75.5175 161.857 73.3873 162.751 71.2921L158.866 70.2095C158.522 71.9905 157.697 74.5048 157.01 76.181L159.554 76.9841H152.884L155.531 76.0762C155.188 74.5048 154.328 72.1651 153.366 70.3841L150.134 71.4667C150.959 73.1778 151.716 75.4476 152.025 76.9841H149.618V80.6159H154.122V83.3746H150.031V87.0063H154.122V88.2635C154.122 88.8222 154.122 89.4159 154.088 90.0444C152.162 90.3587 150.409 90.6381 148.965 90.8476L149.687 94.619L153.572 93.8857C152.953 96.2254 151.75 98.3905 149.343 99.7524C150.169 100.486 151.441 101.917 151.991 102.79C155.497 100.451 157.113 96.854 157.732 93.1175C158.832 92.9079 159.897 92.6635 160.998 92.454L160.207 93.0127L162.235 96.4C163.851 95.1079 165.742 93.5714 167.461 92.0698V98.2857C167.461 98.8444 167.289 99.019 166.842 99.019C166.292 99.054 164.573 99.054 162.991 98.9492C163.473 99.9968 164.057 101.743 164.195 102.79C166.739 102.79 168.423 102.721 169.626 102.057C170.795 101.394 171.139 100.311 171.139 98.3206V93.1873L172.549 95.5968C173.786 94.619 175.161 93.4667 176.502 92.3143V98.2159C176.502 98.7397 176.33 98.9143 175.849 98.9143C175.333 98.9143 173.752 98.9492 172.239 98.8444C172.789 99.8921 173.374 101.708 173.511 102.79C175.918 102.79 177.568 102.686 178.737 102.022C179.905 101.394 180.249 100.206 180.249 98.2508V71.3968Z" fill="#55D6D2"/>
<path d="M187.159 78.3111C187.709 77.6476 188.259 76.8794 188.74 76.0413H190.459V77.5429C190.459 77.7873 190.459 78.0317 190.425 78.3111H187.159ZM199.707 84.9111C198.813 84.3175 195.375 82.327 193.932 81.5587H199.604V78.3111H194.31C194.344 78.0667 194.344 77.8571 194.344 77.6127V76.0413H198.813V72.8286H190.287C190.563 72.1302 190.769 71.4317 190.975 70.7683L187.365 70C186.678 72.5841 185.337 75.1333 183.584 76.8095C184.271 77.1587 185.371 77.7873 186.197 78.3111H183.893V81.5587H189.6C188.74 83.3048 186.987 85.0159 183.481 86.4127C184.375 87.0762 185.509 88.3683 186.059 89.2064C189.153 87.7397 191.147 85.9587 192.385 84.1778C193.932 85.2603 195.857 86.6921 196.819 87.5651L199.707 84.9111ZM206.686 91.3365V93.2921H192.488V91.3365H206.686ZM192.488 98.3556V96.2952H206.686V98.3556H192.488ZM188.465 102.825H192.488V101.673H206.686V102.79H210.88V88.0889H188.465V102.825ZM209.78 82.327H204.554V76.4254H209.78V82.327ZM200.773 72.7587V85.9937H213.836V72.7587H200.773Z" fill="#55D6D2"/>
<path d="M239.035 82.5365H242.817V81.1746H248.867V78.7302H242.817V77.5778H247.595V75.1683H242.817V74.0857H248.18V71.6762H242.817V70.2444H239.035V71.6762H234.154V74.0857H239.035V75.1683H234.841V77.5778H239.035V78.7302H233.879V81.1746H239.035V82.5365ZM246.152 83.0254H221.503V85.6095H242.164V86.8317H222.671V89.2413H242.164V90.5333H221.296V93.1524H231.3L230.578 93.781C232.297 94.7587 234.326 96.3651 235.254 97.5524L238.004 95.073C237.488 94.4794 236.698 93.781 235.838 93.1524H246.152V83.0254ZM218.959 81.7333C220.54 81.6635 222.362 81.5587 224.356 81.454V82.5365H228.103V81.2794L232.95 81L232.985 78.4857L228.103 78.6952V77.5778H232.4V75.1683H228.103V74.0857H232.813V71.6762H228.103V70.2444H224.356V71.6762H219.302V74.0857H224.356V75.1683H220.127V77.5778H224.356V78.8349C222.293 78.9397 220.402 79.0095 218.855 79.0444L218.959 81.7333ZM221.124 102.267C223.428 100.625 224.803 98.0413 225.697 95.4571L222.156 94.1651C221.399 96.4 219.887 98.6 217.859 99.927L221.124 102.267ZM232.71 98.9143C231.094 98.9143 230.853 98.7746 230.853 97.8667V94.1651H226.797V97.9016C226.797 101.394 227.828 102.441 232.228 102.441H237.798C240.995 102.441 242.129 101.498 242.576 97.6571C241.51 97.4127 239.826 96.854 239.035 96.2603C238.863 98.5651 238.623 98.9143 237.385 98.9143H232.71ZM241.098 95.7016C243.298 97.5524 245.567 100.206 246.461 102.092L250.002 100.032C249.005 98.0413 246.598 95.5619 244.364 93.8508L241.098 95.7016Z" fill="#55D6D2"/>
<path d="M277.47 88.6825C276.645 90.4286 275.613 91.9651 274.341 93.3619C272.966 91.9651 271.832 90.3937 271.007 88.6825H277.47ZM257.943 87.146C257.977 86.0635 257.977 85.0159 257.977 84.073V83.0603H261.175V87.146H257.943ZM261.175 75.273V79.219H257.977V75.273H261.175ZM280.048 84.7365L279.326 84.9111H266.297V88.6825H270.525L267.191 89.8349C268.291 92.1397 269.7 94.2349 271.316 96.0508C269.425 97.4127 267.26 98.4603 264.922 99.1587C264.956 98.8794 264.956 98.6 264.956 98.2857V82.3619C265.816 83.0254 267.019 84.1079 267.5 84.7016C270.972 82.327 271.694 78.4508 271.694 75.3079V75.0984H275.716V79.0794C275.716 82.5365 276.507 83.5841 279.223 83.5841H281.183C283.451 83.5841 284.311 82.3619 284.655 77.8222C283.623 77.5778 282.076 76.9841 281.354 76.3556C281.251 79.6032 281.148 80.0921 280.701 80.0921H279.945C279.601 80.0921 279.532 79.9873 279.532 79.0444V71.2571H267.775V75.2032C267.775 77.2984 267.466 79.7429 264.956 81.6635V71.4317H254.299V84.073C254.299 89.1714 254.162 96.1905 251.996 100.975C252.958 101.324 254.574 102.267 255.296 102.86C256.774 99.6127 257.462 95.2476 257.737 91.0222H261.175V98.2159C261.175 98.7048 261.003 98.8444 260.59 98.8444C260.178 98.8444 258.906 98.8794 257.668 98.8095C258.184 99.8571 258.699 101.743 258.803 102.825C261.003 102.825 262.481 102.721 263.547 102.057C264.372 101.533 264.75 100.765 264.887 99.5778C265.644 100.486 266.503 101.883 266.881 102.825C269.632 101.883 272.141 100.556 274.341 98.8794C276.542 100.59 279.085 101.987 281.973 102.93C282.558 101.813 283.795 100.137 284.723 99.2984C282.008 98.5651 279.567 97.4127 277.435 95.946C279.807 93.2921 281.595 89.9397 282.695 85.819L280.048 84.7365Z" fill="#55D6D2"/>
<path d="M293.696 70.3143C291.943 75.3079 288.986 80.2667 285.892 83.4095C286.58 84.3873 287.68 86.6921 288.058 87.7048C288.849 86.8667 289.639 85.9238 290.396 84.9111V102.756H294.28V78.7651C295.552 76.4254 296.687 73.981 297.581 71.5714L293.696 70.3143ZM302.497 71.1873V74.819H309.407C310.266 78.2063 311.71 81.5238 313.704 84.1778H299.609C301.397 81.5587 302.875 78.4159 303.941 75.5175L300.022 74.4698C299.093 77.7524 297.065 81.9079 294.521 84.3175C295.312 85.0159 296.584 86.273 297.237 87.0762C297.787 86.5175 298.337 85.8889 298.853 85.1905V87.9143H302.497C302.016 92.873 300.744 97.0286 295.931 99.6476C296.756 100.346 297.856 101.813 298.337 102.79C303.975 99.3333 305.831 94.2349 306.485 87.9143H310.747C310.541 94.8984 310.301 97.5524 309.819 98.2159C309.51 98.6349 309.2 98.7048 308.719 98.7048C308.135 98.7048 307.035 98.7048 305.797 98.6C306.416 99.7175 306.863 101.429 306.932 102.686C308.513 102.721 309.991 102.721 310.919 102.546C311.916 102.337 312.673 101.987 313.395 101.01C314.323 99.7175 314.598 95.8413 314.838 85.9238V85.5397C315.32 86.0286 315.767 86.4825 316.282 86.9016C316.97 85.854 318.345 84.1079 319.273 83.3746C315.732 80.8952 313.498 76.181 312.604 71.1873H302.497Z" fill="#55D6D2"/>
<path d="M344.507 86.9365H332.096V84.7016H344.507V86.9365ZM332.096 92.6635V90.3937H344.507V92.6635H332.096ZM352.345 78.3111V74.4H335.568C335.981 73.3175 336.325 72.2349 336.668 71.1524L332.44 70.1746C332.096 71.5714 331.649 72.9683 331.099 74.4H321.852V78.3111H329.38C327.318 82.3619 324.464 86.0286 320.82 88.5079C321.611 89.2762 322.917 90.7778 323.502 91.6857C325.186 90.5333 326.664 89.1365 328.04 87.6V102.79H332.096V96.1206H344.507V98.2159C344.507 98.7048 344.3 98.8794 343.716 98.9143C343.131 98.9143 341.138 98.9143 339.384 98.8095C339.9 99.927 340.45 101.673 340.622 102.825C343.406 102.825 345.366 102.79 346.707 102.127C348.116 101.498 348.494 100.381 348.494 98.3206V81.0698H332.577C333.093 80.1619 333.54 79.254 333.953 78.3111H352.345Z" fill="#55D6D2"/>
<path d="M365.546 71.5365L364.961 71.7111H356.848V102.825H360.664V75.4127H363.689C363.071 77.8571 362.28 81 361.558 83.2349C363.586 85.5746 364.102 87.7397 364.102 89.381C364.102 90.3587 363.896 91.0222 363.483 91.3365C363.174 91.546 362.864 91.6508 362.486 91.6508C362.039 91.6508 361.524 91.6508 360.87 91.6159C361.455 92.6635 361.764 94.2698 361.799 95.3175C362.658 95.3175 363.483 95.3524 364.171 95.2476C364.927 95.1079 365.649 94.8984 366.199 94.4444C367.299 93.6762 367.815 92.2095 367.78 89.9048C367.78 87.8794 367.368 85.4698 365.133 82.781C366.199 80.0571 367.368 76.2159 368.33 73.1778L365.546 71.5365ZM373.246 81.4889H381.222V84.4222H373.246V81.4889ZM381.222 75.3429V78.1016H373.246V75.3429H381.222ZM383.697 88.2286C382.907 89.3111 381.738 90.5683 380.603 91.6857C380.088 90.5333 379.641 89.2762 379.297 87.9841H385.279V71.746H369.327V97.6921C367.987 97.9016 366.783 98.1111 365.752 98.2508L367.093 102.267C370.324 101.533 374.553 100.66 378.506 99.7175L378.197 96.0857C376.547 96.4 374.862 96.7143 373.246 96.9937V87.9841H375.722C377.269 94.7936 379.95 99.9968 385.004 102.721C385.554 101.603 386.757 100.032 387.651 99.1936C385.416 98.181 383.629 96.6095 382.253 94.619C383.732 93.4667 385.416 91.9651 386.894 90.5333L383.697 88.2286Z" fill="#55D6D2"/>
<path d="M408.449 72.7587C410.959 77.5429 414.912 83.0603 418.144 86.5873C418.935 85.4349 420.516 83.8286 421.582 82.9556C418.453 80.0222 414.534 75.1333 412.54 71.0476L408.449 72.7587ZM398.789 70.9778C397.002 75.8317 393.77 80.6159 390.229 83.4444C391.329 84.1079 393.323 85.6794 394.148 86.5524C397.655 83.2349 401.264 77.8222 403.465 72.3397L398.789 70.9778ZM409.034 90.5683C410.306 92.2794 411.681 94.2698 412.918 96.2254C408.931 96.4349 404.908 96.6444 401.196 96.819C403.293 93.0476 405.527 88.3683 407.315 84.073L402.399 82.9206C401.092 87.2857 398.72 92.873 396.52 97.0286L391.742 97.2032L392.292 101.568C398.342 101.289 407.005 100.765 415.256 100.206C415.841 101.219 416.322 102.162 416.666 103L420.928 100.73C419.244 97.3778 416.012 92.454 413.022 88.6825L409.034 90.5683Z" fill="#55D6D2"/>
<path d="M440.558 88.5079V93.1873H431.895V88.5079H440.558ZM444.58 96.7492V84.946H427.907V99.2635H431.895V96.7492H444.58ZM446.368 78.7302H426.154V82.3619H446.368V78.7302ZM454 72.3048H425.81V76.2508H449.806V97.5175C449.806 98.1111 449.565 98.2857 448.946 98.2857C448.293 98.3206 446.024 98.3556 444.099 98.2159C444.684 99.4381 445.302 101.498 445.44 102.721C448.5 102.756 450.7 102.651 452.109 101.917C453.587 101.184 454 99.927 454 97.5524V72.3048Z" fill="#55D6D2"/>
</svg>
