<svg width="454" height="99" viewBox="0 0 454 99" fill="none" xmlns="http://www.w3.org/2000/svg">
<path fill-rule="evenodd" clip-rule="evenodd" d="M87.7738 56.7562C88.98 56.7562 89.9617 57.7341 89.9617 58.9357C89.9617 60.1373 88.98 61.1152 87.7738 61.1152C86.5676 61.1152 85.5866 60.1373 85.5866 58.9357C85.5866 57.7341 86.5676 56.7562 87.7738 56.7562ZM56.6211 20.506C57.8273 20.506 58.809 21.4847 58.809 22.6863C58.809 23.8872 57.8273 24.8651 56.6211 24.8651C55.4148 24.8651 54.4339 23.8872 54.4339 22.6863C54.4339 21.4847 55.4148 20.506 56.6211 20.506ZM87.7738 53.7049C84.8791 53.7049 82.5235 56.0522 82.5235 58.9357C82.5235 60.8987 83.6275 62.5921 85.2375 63.4869C82.3731 78.6079 70.3963 90.7967 53.4277 90.7967C46.7898 90.7967 40.6204 88.7728 35.4759 85.3064C35.4118 83.1792 36.3532 79.7321 42.7003 78.4739C72.3086 77.3648 73.8402 65.5983 73.8402 65.5983C69.7558 62.547 36.5749 76.0226 36.5749 76.0226C38.6167 71.9547 47.0395 68.1413 63.12 63.5643C89.4097 57.9707 87.1124 39.4097 87.1124 39.4097C87.1124 39.4097 68.4797 49.5803 60.3405 52.1226C52.2006 54.6656 34.0221 66.6156 34.0221 66.6156C51.6341 45.7662 69.501 47.2918 84.3048 34.3244C99.1086 21.3571 95.0249 0 95.0249 0C92.9831 15.5097 37.8509 44.2405 30.1939 55.4277C24.2332 64.1364 24.9227 71.7647 25.5215 74.7185C22.6074 69.7738 20.9283 63.993 20.9283 57.8123C20.9283 40.1274 34.6417 25.6953 51.8637 24.8672C52.6972 26.661 54.5101 27.9157 56.621 27.9157C59.5164 27.9157 61.8713 25.5698 61.8713 22.6863C61.8713 19.802 59.5164 17.4554 56.621 17.4554C54.5101 17.4554 52.6986 18.7101 51.8645 20.5039C51.75 20.5046 51.6442 20.5046 51.5053 20.5046C30.1493 20.5046 12.8359 38.0762 12.8359 59.7523C12.8359 63.2209 13.2835 66.5819 14.1162 69.7845C10.6882 69.9659 8.54566 71.1087 8.54566 71.1087C7.9814 71.0413 7.57549 70.8994 7.27105 70.7158L9.14446 68.2051L6.56357 69.226C6.69024 68.1305 7.60859 66.9762 7.60859 66.9762C-5.4837 74.7615 2.29207 86.5703 2.29207 86.5703C2.29207 90.0669 5.83306 89.6855 5.83306 89.6855C4.83338 85.8957 9.12431 85.6777 11.3842 87.2378C14.2156 89.1915 15.3577 90.2898 18.9462 92.5138C26.6313 99.1348 41.0565 97.5489 41.0565 97.5489V97.5381C44.3809 98.4831 47.883 99 51.5053 99C71.5608 99 88.048 83.5033 89.9833 63.6647C91.774 62.8302 93.0248 61.0313 93.0248 58.9357C93.0248 56.0522 90.6692 53.7049 87.7738 53.7049Z" fill="#55D6D2"/>
<path fill-rule="evenodd" clip-rule="evenodd" d="M138.967 57.7549C148.454 57.7549 152.885 48.7281 152.885 41.9999C152.885 33.0294 146.126 23.2531 136.183 23.2531C127.606 23.2531 122.096 30.7859 122.096 39.1231C122.096 50.7969 130.843 57.7549 138.967 57.7549ZM138.284 18.6523C152.374 18.6523 159.475 29.463 159.475 40.3897C159.475 53.8449 149.249 62.4132 137.206 62.4132C123.458 62.4132 114.937 51.1429 114.937 40.1024C114.937 30.4973 123.458 18.6523 138.284 18.6523Z" fill="#55D6D2"/>
<path fill-rule="evenodd" clip-rule="evenodd" d="M170.885 31.5654C170.716 32.3504 170.545 33.0782 170.545 34.1431C170.545 35.9917 170.829 37.3914 170.998 38.1763L173.713 50.5571L179.423 31.5654H184.059L188.92 50.7251L192.256 37.6153C192.539 36.4968 192.822 35.3759 192.822 33.9191C192.822 32.9662 192.709 32.4624 192.483 31.5654H198.984C196.554 35.7678 196.384 36.2717 195.874 38.4562L190.109 60.9785H185.812L180.61 40.418L174.617 60.9785H170.32L165.4 38.6813C164.666 35.3759 163.762 33.8072 162.348 31.5654H170.885Z" fill="#55D6D2"/>
<path fill-rule="evenodd" clip-rule="evenodd" d="M209.708 18.6523C208.995 22.3522 208.72 25.7158 208.72 28.182V52.288C208.72 56.4359 208.995 57.6136 210.478 60.9784H201.139C201.744 59.8568 203.226 57.0522 203.226 54.3059L203.281 26.7803C203.281 24.0889 202.843 22.6323 202.074 20.2221L209.708 18.6523Z" fill="#55D6D2"/>
<path fill-rule="evenodd" clip-rule="evenodd" d="M231.695 37.4588C230.471 36.393 228.857 34.8761 226.299 34.8761C223.683 34.8761 222.07 36.7296 222.07 38.8062C222.07 41.0511 223.239 41.8376 227.021 44.363C230.026 46.3847 232.029 48.4041 232.029 52.5025C232.029 57.4971 228.746 60.9785 222.516 60.9785C221.792 60.9785 219.067 60.9785 215.506 59.9115L215.894 52.3342C218.565 56.207 219.956 57.7788 222.294 57.7788C225.297 57.7788 226.577 55.646 226.577 53.7938C226.577 51.2661 225.019 50.2575 221.959 48.2931C220.067 47.0578 216.396 44.5325 216.396 39.8159C216.396 36.5601 219.177 31.5654 226.132 31.5654C228.413 31.5654 229.637 32.0142 231.695 32.8007V37.4588Z" fill="#55D6D2"/>
<path fill-rule="evenodd" clip-rule="evenodd" d="M257.659 47.1657C257.659 41.0903 253.911 35.645 248.709 35.645C244.906 35.645 241.606 39.4292 241.606 45.7337C241.606 54.3318 247.199 58.5742 252.569 58.1148C254.527 56.5097 257.659 53.6445 257.659 47.1657ZM262.918 45.9628C262.918 59.0313 252.233 62.4133 248.654 62.4133C242.949 62.4133 235.62 58.5742 235.62 48.1407C235.62 35.645 243.844 33.0662 248.654 31.5757C256.653 31.2881 262.918 37.0783 262.918 45.9628Z" fill="#55D6D2"/>
<path fill-rule="evenodd" clip-rule="evenodd" d="M274.006 31.677V38.0955C274.402 37.4808 276.096 34.6352 276.549 34.0764C278.639 31.5654 281.801 31.5654 282.141 31.5654C287.733 31.5654 288.919 36.5327 289.258 38.0955C289.597 37.4808 291.122 34.5795 291.517 34.0217C293.381 31.7327 295.98 31.5654 297.223 31.5654C301.515 31.5654 303.21 34.4122 303.605 35.193C304.396 36.6442 304.396 38.207 304.396 39.6583V56.6247C304.396 58.3548 304.396 59.0799 305.301 60.9785H297.957C298.803 59.1926 298.803 58.9683 298.803 56.6247V40.0487C298.803 37.5377 296.488 35.8634 294.285 35.8634C291.686 35.8634 290.219 37.7039 289.258 38.8763V56.1774C289.258 58.5779 289.54 59.5272 290.275 60.9785H282.423C283.27 59.583 283.552 58.9683 283.552 56.1774V41.723C283.552 39.9917 283.552 38.7659 282.818 37.7597C281.971 36.5896 280.728 35.8634 279.429 35.8634C277.226 35.8634 275.701 37.2031 274.006 38.8205V56.1216C274.006 58.0202 274.006 59.0241 275.249 60.9785H267.228C268.132 59.1357 268.415 58.4664 268.415 56.3447V37.5935C268.415 34.5237 267.85 33.1282 267.228 31.677H274.006Z" fill="#55D6D2"/>
<path fill-rule="evenodd" clip-rule="evenodd" d="M329.676 43.4882C329.843 38.1456 327.885 35.1084 323.854 35.1084C319.657 35.1084 318.146 38.4828 317.699 43.4882H329.676ZM329.955 59.6847C328.164 60.3029 326.205 60.9785 323.463 60.9785C314.117 60.9785 311.766 53.3855 311.766 46.7491C311.766 36.9642 316.634 31.5654 323.519 31.5654C328.333 31.5654 332.138 34.4891 332.977 40.1138C333.369 42.4766 333.314 43.713 333.314 46.9188L317.866 47.2561C318.033 49.2805 318.537 56.1417 325.029 56.1417C327.381 56.1417 329.395 55.3549 332.699 53.8363L329.955 59.6847Z" fill="#55D6D2"/>
<path fill-rule="evenodd" clip-rule="evenodd" d="M385.756 18.6523L382.758 25.151C378.03 23.2864 376.473 22.8911 371.456 22.8911V50.8634C371.456 54.2527 371.745 57.6997 372.667 60.9784H363.846C364.48 58.322 365.057 55.2139 365.057 50.1846V22.8911C362.173 22.8358 359.638 22.8358 351.275 25.7734L353.581 18.6523H385.756Z" fill="#55D6D2"/>
<path fill-rule="evenodd" clip-rule="evenodd" d="M397.201 43.4882C397.368 38.1456 395.411 35.1084 391.379 35.1084C387.182 35.1084 385.672 38.4828 385.224 43.4882H397.201ZM397.48 59.6847C395.69 60.3029 393.73 60.9785 390.989 60.9785C381.643 60.9785 379.291 53.3855 379.291 46.7491C379.291 36.9642 384.159 31.5654 391.045 31.5654C395.858 31.5654 399.664 34.4891 400.503 40.1138C400.894 42.4766 400.839 43.713 400.839 46.9188L385.391 47.2561C385.559 49.2805 386.062 56.1417 392.555 56.1417C394.906 56.1417 396.921 55.3549 400.224 53.8363L397.48 59.6847Z" fill="#55D6D2"/>
<path fill-rule="evenodd" clip-rule="evenodd" d="M425.081 38.3401C423.783 36.985 422.205 35.3477 418.763 35.3477C412.219 35.3477 410.358 41.2761 410.358 45.6214C410.358 54.2602 415.885 56.632 419.665 56.632C422.205 56.632 424.291 56.0103 425.984 55.5025L422.938 60.2451C421.583 60.64 420.286 60.9785 418.143 60.9785C410.301 60.9785 404.434 55.1076 404.434 47.0894C404.434 43.0251 406.352 31.5654 419.892 31.5654C422.485 31.5654 424.066 31.8475 425.588 32.1296L425.081 38.3401Z" fill="#55D6D2"/>
<path fill-rule="evenodd" clip-rule="evenodd" d="M438.515 18.6523C437.896 22.6893 437.39 25.8277 437.39 30.0327V38.0496L440.43 34.5739C441.444 33.3963 442.794 31.8266 446.23 31.8266C448.821 31.8266 451.523 33.3963 452.537 35.8064C453.494 37.8815 453.439 40.0115 453.381 42.9269V54.3633C453.381 57.2775 453.381 58.063 454 60.9784H447.131C447.975 57.8938 447.975 56.6601 447.975 54.8103V43.7684C447.975 41.9734 448.032 40.3487 447.131 39.0579C446.006 37.4894 443.809 36.928 442.569 36.928C440.373 36.928 438.798 37.8255 437.39 38.6658V51.0557C437.39 57.6709 437.726 58.7353 438.345 60.9224H430.294C431.194 58.7913 431.983 56.8854 431.983 50.7196V29.4165C431.983 24.8765 431.646 23.2496 430.631 20.1672L438.515 18.6523Z" fill="#55D6D2"/>
<path d="M125.024 87.849H121.488V91.0201H116.682V94.1563H121.488V98.7561H125.024V94.1563H129.556V91.0201H125.024V87.849ZM120.081 75.8617H126.054V77.4995H120.081V75.8617ZM120.081 71.7497H126.054V73.3527H120.081V71.7497ZM146.068 67.7772H138.824V71.2619H142.601V79.4509C142.223 77.8131 141.571 75.5829 141.021 73.8405L138.412 74.3284C139.065 76.4889 139.751 79.3812 140.026 81.0887L142.601 80.4615V82.7962C140.918 84.6779 139.305 86.4551 138.172 87.6399V67.7772H130.654V71.2619H134.739V78.4752C134.293 77.0116 133.709 75.2693 133.126 73.9102L130.585 74.5723C131.341 76.6631 132.165 79.5206 132.474 81.1932L134.739 80.5312V83.3538C132.988 85.1658 131.306 86.9081 130.07 88.0581C129.453 87.2566 128.457 86.1763 127.53 85.0961H130.654V82.0644H123.891C124.063 81.4372 124.235 80.8099 124.338 80.1478H129.59V69.0665H124.063C124.406 68.265 124.749 67.359 125.093 66.4182L120.939 66.1394C120.87 66.9757 120.63 68.056 120.355 69.0665H116.716V80.1478H120.87C120.767 80.7751 120.596 81.4023 120.39 82.0644H115.584V85.0961H118.914C118.055 86.3854 116.785 87.5005 115 88.3369C115.687 88.9293 116.613 90.114 117.025 90.8807C119.909 89.3823 121.694 87.396 122.793 85.0961H123.479C124.921 86.7687 126.809 88.9293 127.702 90.2534L129.933 88.302L131.615 91.2988C132.611 90.2883 133.675 89.1732 134.739 88.0581V94.1214C134.739 94.5396 134.602 94.679 134.224 94.679C133.812 94.679 132.611 94.679 131.478 94.6093C131.959 95.585 132.336 97.2925 132.439 98.2682C134.465 98.2682 135.906 98.1985 136.902 97.5364C137.898 96.944 138.172 95.8986 138.172 94.1911V88.0232L139.854 90.811C140.713 89.8353 141.674 88.7899 142.601 87.7445V94.2608C142.601 94.679 142.463 94.8184 142.051 94.8184C141.639 94.8184 140.369 94.8532 139.133 94.7835C139.58 95.7244 140.06 97.397 140.129 98.4076C142.223 98.4076 143.733 98.3031 144.763 97.6758C145.793 97.0834 146.068 96.038 146.068 94.2957V67.7772Z" fill="#55D6D2"/>
<path d="M171.128 67.5681H162.477V71.3316H167.489V83.3886C165.395 85.4097 163.198 87.4657 161.722 88.7202V85.8976H158.117C158.152 85.34 158.152 84.8173 158.152 84.2946V82.9704H161.482V79.3812H158.152V76.6283H161.894V73.0042H159.456C160.28 71.2619 161.207 69.2408 162.031 67.2893L158.152 66.1742C157.637 68.2302 156.676 70.9831 155.783 73.0042H152.075L155.405 71.7846C155.028 70.321 154.17 68.1257 153.414 66.4182L150.153 67.4636C150.805 69.2408 151.663 71.5058 151.972 73.0042H149.569V76.6283H154.204V79.3812H150.05V82.9704H154.204V84.2946C154.204 84.7825 154.204 85.34 154.17 85.8976H149.398V89.5565H153.723C153.14 91.9958 151.938 94.2957 149.398 95.7244C150.29 96.4213 151.492 97.8501 152.075 98.7561C155.44 96.491 157.019 93.1457 157.705 89.5565H161.722V89.4868L163.061 92.17C164.468 90.811 165.979 89.2429 167.489 87.7096V94.0169C167.489 94.5396 167.318 94.679 166.837 94.7138C166.322 94.7487 164.64 94.7487 163.164 94.679C163.576 95.6547 164.022 97.188 164.091 98.1637C166.734 98.1637 168.485 98.094 169.618 97.5364C170.785 96.944 171.128 96.0032 171.128 94.0169V67.5681ZM162.1 74.8163C162.889 77.0465 163.747 79.9736 164.091 81.6811L167.009 80.7402C166.631 79.0676 165.67 76.245 164.846 74.1193L162.1 74.8163ZM180.775 67.5681H172.021V71.3316H177.067V82.7614C174.939 84.6779 172.879 86.5597 171.471 87.6748L173.119 90.8458C174.321 89.7307 175.694 88.4414 177.067 87.1172V94.0169C177.067 94.5396 176.895 94.7138 176.346 94.7487C175.831 94.7487 174.046 94.7835 172.467 94.7138C172.913 95.6547 173.325 97.2577 173.428 98.2682C176.14 98.2682 177.994 98.2682 179.161 97.641C180.397 97.0486 180.775 96.0729 180.775 94.0517V67.5681ZM171.849 74.6769C172.501 76.9071 173.257 79.8342 173.531 81.6114L176.518 80.8099C176.209 79.1373 175.385 76.245 174.664 74.0496L171.849 74.6769Z" fill="#55D6D2"/>
<path d="M187.537 74.2936C188.087 73.6315 188.636 72.8648 189.117 72.0285H190.833V73.5269C190.833 73.7709 190.833 74.0148 190.799 74.2936H187.537ZM200.068 80.8796C199.175 80.2872 195.742 78.301 194.3 77.5343H199.965V74.2936H194.678C194.712 74.0496 194.712 73.8405 194.712 73.5966V72.0285H199.175V68.8226H190.661C190.936 68.1257 191.142 67.4287 191.348 66.7666L187.743 66C187.057 68.5787 185.718 71.1225 183.967 72.7951C184.654 73.1436 185.752 73.7709 186.576 74.2936H184.276V77.5343H189.975C189.117 79.2767 187.366 80.9842 183.864 82.378C184.757 83.0401 185.89 84.3295 186.439 85.1658C189.529 83.7022 191.52 81.925 192.755 80.1478C194.3 81.2281 196.223 82.6568 197.184 83.528L200.068 80.8796ZM207.036 87.2914V89.2429H192.858V87.2914H207.036ZM192.858 94.2957V92.2397H207.036V94.2957H192.858ZM188.842 98.7561H192.858V97.6061H207.036V98.7212H211.225V84.0507H188.842V98.7561ZM210.126 78.301H204.908V72.4118H210.126V78.301ZM201.132 68.7529V81.9599H214.177V68.7529H201.132Z" fill="#55D6D2"/>
<path d="M239.306 78.51H243.116V77.151H249.124V74.7117H243.116V73.5618H247.888V71.1573H243.116V70.0771H248.437V67.6726H243.116V66.2091H239.306V67.6726H234.465V70.0771H239.306V71.1573H235.152V73.5618H239.306V74.7117H234.191V77.151H239.306V78.51ZM224.682 78.51H228.423V77.151H233.47V74.7117H228.423V73.5618H232.715V71.1573H228.423V70.0771H233.126V67.6726H228.423V66.2091H224.682V67.6726H219.635V70.0771H224.682V71.1573H220.459V73.5618H224.682V74.7117H219.189V77.151H224.682V78.51ZM242.43 86.49H221.626V89.1035H233.264L231.616 90.4277C233.092 91.5079 234.912 93.0412 235.77 94.0866L238.585 91.6473C237.864 90.9155 236.662 89.9398 235.495 89.1035H246.446V85.2006H249.776V82.7962H246.446V78.9979H221.798V81.5766H242.43V82.7962H218.777V85.2006H242.43V86.49ZM221.832 98.0591C223.583 96.3865 224.99 93.8427 225.986 91.6473L222.519 90.114C221.626 92.1352 220.081 94.4351 218.365 95.8638L221.832 98.0591ZM232.818 94.8532C231.101 94.8532 230.826 94.7138 230.826 93.773V90.114H226.776V93.8427C226.776 97.2925 227.84 98.3728 232.406 98.3728H238.207C241.537 98.3728 242.67 97.4319 243.116 93.5987C242.052 93.3548 240.37 92.7973 239.546 92.2049C239.374 94.5048 239.168 94.8532 237.83 94.8532H232.818ZM241.4 91.6473C243.391 93.5639 245.76 96.2122 246.721 97.9546L250.257 95.9335C249.193 94.1214 246.686 91.5776 244.73 89.8353L241.4 91.6473Z" fill="#55D6D2"/>
<path d="M278.338 85.1309C277.411 87.0475 276.141 88.7202 274.63 90.0792C273.086 88.6505 271.781 86.9778 270.889 85.1309H278.338ZM257.981 78.1267C258.839 79.1024 259.629 80.113 260.075 80.7751L261.448 79.66V83.4583C260.109 83.981 258.908 84.434 257.878 84.7825C257.946 83.1098 257.981 81.472 257.981 80.0433V78.1267ZM261.448 71.1573V77.3949C260.693 76.5238 259.766 75.5829 258.942 74.7814L257.981 75.4784V71.1573H261.448ZM281.016 81.0887L280.26 81.2629H266.288V85.1309H268.76L267.078 85.6536C268.211 88.2323 269.687 90.4974 271.472 92.4488C269.584 93.529 267.421 94.3654 265.087 94.9229C265.121 94.679 265.121 94.4002 265.121 94.1214V78.1964C265.876 78.8585 267.078 80.113 267.49 80.7751C271.987 78.4403 272.983 74.642 272.983 71.3316V71.2967H276.999V75.0253C276.999 78.3706 277.651 79.7645 280.913 79.7645H282.663C283.35 79.7645 284.105 79.7297 284.62 79.5554C284.483 78.6146 284.414 77.2555 284.311 76.245C283.865 76.3844 283.075 76.4889 282.629 76.4889H281.29C280.878 76.4889 280.81 76.1056 280.81 75.095V67.4636H269.275V71.1922C269.275 73.4572 268.829 75.9662 265.121 77.8479V67.4287H254.308V80.0781C254.308 85.1309 254.205 92.1003 252.419 96.8743C253.278 97.2228 254.96 98.1288 255.681 98.7561C256.985 95.3411 257.569 90.6716 257.809 86.3157L258.805 88.8247C259.663 88.302 260.521 87.7096 261.448 87.1172V94.0517C261.448 94.4699 261.311 94.6093 260.933 94.6093C260.555 94.6093 259.526 94.6093 258.461 94.5744C258.942 95.6199 259.388 97.397 259.491 98.4425C261.482 98.4425 262.855 98.3379 263.817 97.6758C264.641 97.1531 264.984 96.3168 265.087 95.0972C265.808 95.9683 266.735 97.5016 267.112 98.547C269.893 97.7107 272.399 96.6304 274.596 95.2017C276.69 96.7001 279.127 97.8849 281.977 98.6864C282.526 97.6061 283.693 95.9683 284.586 95.0972C282.114 94.5048 279.848 93.6336 277.892 92.5185C280.501 89.8701 282.492 86.49 283.59 82.0644L281.016 81.0887Z" fill="#55D6D2"/>
<path d="M293.992 66.3136C292.276 71.2967 289.255 76.245 286.165 79.3812C286.886 80.3918 287.984 82.6568 288.362 83.7022C289.083 82.9007 289.804 82.0644 290.525 81.1235V98.6864H294.541V74.8163C295.811 72.4467 296.91 69.9725 297.837 67.5681L293.992 66.3136ZM306.797 67.2196V71.1922H309.852C310.985 74.3981 312.736 77.7086 314.864 80.3221H299.931C302.574 77.2904 304.668 73.1436 305.939 68.8226L301.922 67.7772C300.755 71.9588 298.592 75.792 295.811 78.1964C296.532 79.1024 297.837 81.0887 298.317 82.0296C298.798 81.5766 299.279 81.0887 299.725 80.566V84.1552H302.883C302.231 89.661 300.24 93.4245 295.88 95.5153C296.704 96.2123 298.111 97.7804 298.592 98.5818C303.604 95.7244 305.973 91.1595 306.865 84.1552H311.191C310.882 90.9504 310.539 93.5987 309.989 94.3305C309.68 94.7138 309.406 94.8184 308.925 94.8184C308.342 94.8184 307.277 94.8184 306.11 94.679C306.694 95.6896 307.071 97.2925 307.174 98.4425C308.719 98.5121 310.127 98.4773 311.019 98.3031C312.049 98.1288 312.804 97.8152 313.491 96.8395C314.486 95.585 314.864 91.7867 315.276 81.9947C315.276 81.7159 315.276 81.2281 315.31 80.8448C315.722 81.3326 316.169 81.7856 316.649 82.2386C317.198 80.8796 318.4 78.7888 319.155 77.8131C316.169 75.548 313.903 71.4013 312.942 67.2196H306.797Z" fill="#55D6D2"/>
<path d="M344.662 82.9007H332.338V80.7054H344.662V82.9007ZM332.269 88.6156C332.303 87.8142 332.338 87.0824 332.338 86.3506H344.662V88.6156H332.269ZM352.489 74.2936V70.3907H335.736C336.114 69.3105 336.491 68.2302 336.835 67.1499L332.612 66.1742C332.235 67.5681 331.788 68.962 331.239 70.3907H322.039V74.2936H329.488C327.463 78.1616 324.717 81.6811 321.249 84.0158C322.039 84.7825 323.309 86.2809 323.927 87.2218C325.506 86.1067 326.879 84.8173 328.184 83.4234V86.246C328.184 89.4868 327.943 93.2154 324.991 95.8289C325.849 96.3865 327.394 98.1288 327.944 99C330.072 97.2228 331.17 94.679 331.754 92.0655H344.662V94.1563C344.662 94.6441 344.456 94.8184 343.872 94.8532C343.289 94.8532 341.298 94.8532 339.547 94.7487C340.062 95.8638 340.611 97.6061 340.783 98.7561C343.563 98.7561 345.52 98.7212 346.859 98.0591C348.266 97.4319 348.644 96.3168 348.644 94.2608V77.0465H332.681C333.196 76.1404 333.676 75.2344 334.054 74.2936H352.489Z" fill="#55D6D2"/>
<path d="M365.809 67.3939L365.259 67.5681H357.089V98.6864H360.659V71.2619H363.989C363.44 73.5618 362.685 76.3844 362.032 78.51C363.989 80.9493 364.435 83.1795 364.435 84.887C364.435 85.8627 364.229 86.6294 363.817 86.943C363.577 87.1521 363.234 87.2218 362.891 87.2218C362.513 87.2566 361.998 87.2218 361.414 87.1869C361.964 88.1975 362.307 89.7307 362.307 90.7413C363.097 90.7761 363.92 90.7761 364.538 90.6716C365.294 90.5322 365.946 90.3231 366.461 89.905C367.559 89.0686 368.006 87.5702 368.006 85.34C368.006 83.2841 367.594 80.8099 365.534 78.0919C366.461 75.4087 367.594 71.8891 368.486 68.962L365.809 67.3939ZM373.498 77.2207H381.051V80.0084H373.498V77.2207ZM381.051 71.1573V73.8754H373.498V71.1573H381.051ZM384.346 83.9461C383.351 85.0264 381.84 86.3157 380.433 87.396C379.883 86.2112 379.437 84.9567 379.06 83.5977H384.999V67.603H369.482V92.5882C369.482 94.226 368.623 95.1668 367.903 95.6199C368.486 96.3168 369.344 97.9546 369.653 98.8606C370.477 98.3379 371.747 97.8152 378.442 96.0729C378.304 95.2017 378.236 93.4942 378.27 92.3094L373.498 93.3897V83.5977H375.558C377.171 90.4277 379.918 95.7941 385.033 98.6515C385.616 97.5016 386.852 95.8638 387.745 95.0623C385.479 94.0169 383.625 92.3791 382.184 90.3928C383.728 89.3823 385.513 88.0581 386.99 86.8733L384.346 83.9461Z" fill="#55D6D2"/>
<path d="M405.047 67.0454V71.3316H410.539C412.462 75.9314 415.517 80.6008 419.431 83.6325C420.117 82.3432 421.593 80.3569 422.52 79.4509C418.298 76.8374 415.174 71.924 413.698 67.0454H405.047ZM398.867 66.9757C396.808 72.0285 393.203 77.0813 389.564 80.1827C390.594 81.019 392.414 82.831 393.203 83.7371C396.911 80.0781 400.927 74.189 403.433 68.4741L398.867 66.9757ZM409.063 86.3157C410.127 87.849 411.26 89.661 412.359 91.4034L399.76 92.2397C403.09 88.4762 406.386 83.8068 409.029 79.1024L404.257 77.0813C401.545 82.8659 397.254 88.7899 395.812 90.2883C394.439 91.8215 393.512 92.7624 392.379 93.076C392.997 94.2957 393.787 96.6304 394.061 97.5016C395.743 96.8743 398.078 96.6653 414.659 95.3411C415.38 96.5956 415.998 97.7455 416.444 98.7561L420.666 96.491C418.984 93.2503 415.826 88.302 413.045 84.4688L409.063 86.3157Z" fill="#55D6D2"/>
<path d="M440.577 84.4688V89.1383H431.926V84.4688H440.577ZM444.594 92.6927V80.9145H427.944V95.2017H431.926V92.6927H444.594ZM446.379 74.7117H426.193V78.3358H446.379V74.7117ZM454 68.2999H425.85V72.2376H449.812V93.4593C449.812 94.0517 449.572 94.226 448.954 94.226C448.301 94.2608 446.036 94.2957 444.113 94.1563C444.697 95.3759 445.315 97.4319 445.452 98.6515C448.507 98.6864 450.704 98.5818 452.112 97.8501C453.588 97.1183 454 95.8638 454 93.4942V68.2999Z" fill="#55D6D2"/>
</svg>
