<svg width="107" height="100" viewBox="0 0 107 100" fill="none" xmlns="http://www.w3.org/2000/svg">
<path fill-rule="evenodd" clip-rule="evenodd" d="M77.6255 93.0268H81.1212V89.8538H77.6255V93.0268ZM70.1994 93.0201H73.6052V89.863H70.1994V93.0201ZM96.2472 37.2621H99.6924V34.0417H96.2472V37.2621ZM66.4526 12.7883H69.9758V9.59156H66.4526V12.7883ZM29.223 37.2316H32.7027V34.0658H29.223V37.2316ZM6.91667 51.2276H10.4141V48.0094H6.91667V51.2276ZM36.6569 9.33715H43.8876V6.13605H36.6569V9.33715ZM40.4769 89.6958V82.8373C41.726 82.7575 42.7944 82.6882 43.8574 82.6205V79.3819H36.6813V93.0543H47.5855V89.6958H40.4769ZM73.9056 30.2238H99.7209V6.11767H73.9056V30.2238ZM6.94884 93.0554H32.7008V68.8881H6.94884V93.0554ZM6.95485 30.2515H32.6956V6.0908H6.95485V30.2515ZM66.5612 23.5869V30.2137H69.8942V23.3805C68.6433 23.4719 67.5808 23.5517 66.5172 23.6315V20.0402C67.7487 19.9626 68.8182 19.8943 69.9324 19.8239V16.6184H62.5144V23.6315H51.6325V19.8509H58.7716C58.8673 18.6257 58.9471 17.624 59.0317 16.5546C60.2444 16.472 61.3163 16.3988 62.4915 16.319V6.12403H58.983C58.9125 7.27161 58.8532 8.27277 58.7857 9.35265C57.5466 9.4341 56.4782 9.50511 55.2942 9.58436C55.2056 10.7352 55.1263 11.7859 55.0306 13.043H47.6708V19.8167H44.1411C44.0489 18.6934 43.9656 17.6818 43.8775 16.5947C42.6677 16.4797 41.5489 16.3751 40.3942 16.2689C40.3056 15.0872 40.2316 14.0937 40.1577 13.1041H36.7031V23.2925C37.9206 23.3838 38.9942 23.4653 40.1166 23.5495V26.8365C38.8622 26.8915 37.7885 26.941 36.6985 26.9884V30.2781C37.9112 30.3606 38.9919 30.4338 40.1166 30.5115V33.8012C38.8768 33.8722 37.8097 33.9327 36.7073 33.996V37.2345C38.0697 37.3457 39.2918 37.4459 40.514 37.546C40.5609 38.7663 40.6073 39.9859 40.6543 41.2062C39.3494 41.0757 38.045 40.9458 36.6908 40.8099C36.5846 42.2029 36.5065 43.2046 36.4308 44.1965C35.1787 44.3297 34.1033 44.443 33.0297 44.5564C32.9046 43.372 32.7784 42.1842 32.6557 41.0179H21.5748C21.701 43.4804 21.8184 45.775 21.9335 48.0712C20.665 47.9342 19.3982 47.7988 18.0575 47.6551C17.9759 46.54 17.9037 45.5378 17.8139 44.3164C16.5612 44.4045 15.4911 44.4816 14.4186 44.5564V40.7928H21.5402V33.9977H6.94371V37.278C8.17819 37.3562 9.2483 37.4239 10.3941 37.4965V40.7471C9.15966 40.8335 8.04259 40.9117 6.92963 40.9877V44.5256H14.4533V54.6853C12.856 54.7976 11.7894 54.8719 10.4053 54.9682C10.5796 56.3068 10.7334 57.4879 10.8837 58.6658C9.57996 58.5337 8.27915 58.4016 6.92728 58.2629V61.6808H10.2844C10.4922 60.5916 10.6777 59.6169 10.862 58.6421C13.1396 58.4929 15.4171 58.3443 17.801 58.1886C17.9178 59.5706 18.007 60.6301 18.1097 61.8537H28.9811C29.0785 63.0381 29.1636 64.0486 29.2517 65.1263H32.681V61.9076C31.4571 61.8267 30.3852 61.7557 29.2482 61.6792V58.4902H40.1941C40.2733 59.6559 40.3402 60.6505 40.4089 61.6572H44.1716V55.0007C45.2887 54.8901 46.4075 54.7805 47.5446 54.6688V51.2795C46.2901 51.3797 45.2376 51.4639 44.1839 51.5481C44.0648 50.3587 43.9456 49.1693 43.8147 47.8511C41.7984 47.8511 39.9469 47.8087 38.0967 47.8665C36.9344 47.9034 36.4402 47.4889 36.5535 46.4041C36.6192 45.7816 36.6333 45.1558 36.675 44.4716C37.9124 44.3841 38.9825 44.3093 40.0679 44.235C40.2627 43.1386 40.4377 42.1534 40.6038 41.1616C41.7009 40.9827 42.798 40.8049 43.8634 40.6305C44.2403 37.1481 44.063 36.9962 40.4682 37.5884V33.9977C41.6886 33.9123 42.7534 33.8369 43.8969 33.7555V30.5456C42.6665 30.4371 41.5489 30.3353 40.4447 30.239V26.8766C41.8166 26.9493 43.0258 27.0137 44.2333 27.0764C44.1575 28.1222 44.0812 29.1646 44.0002 30.2847H47.4471C48.1492 27.0049 47.831 26.6532 44.5596 26.9647C44.4311 26.9785 44.3119 27.0665 44.1881 27.1205V23.5886C46.792 23.5886 49.234 23.5886 51.6771 23.5869V30.2544H55.0559C55.1439 29.1168 55.2238 28.1189 55.3106 27.0192H58.7264C58.8456 28.1662 58.9542 29.2169 59.0604 30.2407H62.677V23.3943C64.1316 23.467 65.3461 23.528 66.5612 23.5869ZM66.716 86.5765C62.9315 86.4174 59.1489 86.2584 55.3228 86.096V93.0777H58.7521C58.8513 91.9203 58.9428 90.8696 59.0303 89.8656H62.4819C62.5776 91.0099 62.6609 92.01 62.7507 93.0777H66.1155C66.3139 90.8272 66.5011 88.69 66.6819 86.5462C67.7738 86.3563 68.8668 86.1653 69.8852 85.9876V82.8707H66.1947C66.3843 84.2158 66.5498 85.3953 66.716 86.5765ZM89.0457 41.2263C90.1305 41.0166 91.2153 40.8075 92.2678 40.6022V34.0503H81.3853V37.4226H88.4088C88.6477 38.8492 88.8473 40.0419 89.0457 41.2335C85.2689 41.0612 81.4915 40.8884 77.3296 40.6969C77.5568 42.3569 77.7176 43.5314 77.8785 44.7043C76.6059 44.5177 75.3315 44.33 73.7342 44.0961V34.0481H70.0026V47.7265H59.0186V44.4891C60.2501 44.3911 61.3725 44.2992 62.435 44.215V40.7932H55.3069V37.3582H62.4837V34.0481H51.5689C51.475 35.2094 51.394 36.2112 51.3088 37.2668C50.0714 37.3549 49.0025 37.4297 47.8619 37.5106V44.2117C49.06 44.3064 50.1337 44.3873 51.2601 44.4759V58.2093C50.0092 58.2974 48.945 58.3717 47.6618 58.4597V68.6244C46.3498 68.7598 45.2703 68.8715 44.1914 68.9816C44.0646 67.7972 43.9402 66.6122 43.8175 65.4481H36.7053V68.9508H44.226C44.0863 70.0103 43.9478 71.0698 43.8034 72.1695C42.6047 72.2438 41.5364 72.3137 40.4375 72.3831V75.7812H51.2548V79.1617C49.9992 79.2432 48.9356 79.3136 47.8983 79.3819V86.0857H51.3341C51.4233 84.9524 51.5002 83.9485 51.5853 82.8406C52.8198 82.7607 53.9404 82.6897 55.2758 82.605V72.4166H58.9182V79.0753H62.5142C62.5999 77.8991 62.6698 76.9007 62.7402 75.9226H66.2147C66.3027 77.0697 66.3802 78.0752 66.4724 79.2872H73.7923V86.0488H77.4106C77.4887 84.8776 77.555 83.8791 77.6196 82.8879H81.0941C81.1886 84.0382 81.269 85.0405 81.3559 86.0895C82.726 86.1974 83.9475 86.2959 85.1714 86.3939V93.0608H99.6863V89.7106H92.556V86.3311C93.8034 86.2486 94.8711 86.177 95.987 86.1027C96.0774 84.9249 96.1532 83.9232 96.2359 82.8538C97.4452 82.7673 98.5135 82.6914 99.694 82.6066V75.9226C98.4971 75.8126 97.3765 75.7096 96.2559 75.6078V72.3847C97.4757 72.295 98.544 72.2152 99.6975 72.1293V65.4112H96.2412C96.142 66.5208 96.0481 67.577 95.9547 68.6277C94.7091 68.7637 93.6355 68.8798 92.5619 68.9948V65.3975C93.794 65.3166 94.8641 65.245 95.9724 65.174V61.9657H88.7533C88.6812 63.1298 88.6183 64.1348 88.5532 65.1674H85.0593C84.9689 64.005 84.8856 62.9543 84.7958 61.8017C82.7277 61.8017 80.8775 61.7593 79.0337 61.8166C77.8732 61.854 77.376 61.4462 77.4975 60.358C77.5644 59.7389 77.5803 59.1125 77.622 58.4306C78.8488 58.3464 79.916 58.2737 81.0888 58.1922C81.1886 57.0348 81.2784 55.9841 81.3682 54.9196C82.6444 54.8436 83.711 54.7787 84.7993 54.7132V47.8377H77.3913C77.568 46.6175 77.7088 45.6482 77.8421 44.6718C81.522 44.6245 85.2002 44.5771 88.8796 44.5293V54.7352C90.0688 54.8046 91.136 54.8657 92.2472 54.9301C92.3482 56.1123 92.4356 57.1157 92.5272 58.1955H95.9724C96.068 57.0348 96.1549 55.9857 96.243 54.8992C97.5209 54.8315 98.5892 54.7754 99.6799 54.7198V44.4786H96.0481V51.1764H92.3165V44.3097C90.984 44.4065 89.9162 44.4819 88.8455 44.5601C88.9124 43.4499 88.9793 42.3387 89.0457 41.2263ZM100.676 99.9191H6.3244C2.83172 99.9191 0 97.264 0 93.9892V5.92995C0 2.6551 2.83172 0 6.3244 0H100.676C104.168 0 107 2.6551 107 5.92995V93.9892C107 97.264 104.168 99.9191 100.676 99.9191Z" fill="white"/>
<path fill-rule="evenodd" clip-rule="evenodd" d="M73.8653 71.9603H77.2799V68.7206H73.8653V71.9603ZM70.022 75.5297H81.0367V65.3018H70.022V75.5297Z" fill="white"/>
<path fill-rule="evenodd" clip-rule="evenodd" d="M92.8383 69.2354C92.763 72.7211 92.6839 76.2096 92.6165 79.6959C92.5969 80.6447 92.6122 81.5946 92.6122 82.7603C91.3272 82.8415 90.1617 82.9135 88.8705 82.9936C88.7823 84.0792 88.7032 85.0683 88.6162 86.1638C87.3784 86.2962 86.203 86.4199 85.0295 86.5442V79.5602C86.1601 79.4882 87.273 79.4163 88.5525 79.334V76.1087C87.3281 76.0248 86.2067 75.9463 84.9707 75.8608V72.6508C86.173 72.5701 87.2846 72.4977 88.5935 72.4126C88.6744 71.3772 88.7522 70.3853 88.8423 69.2354H92.8383Z" fill="white"/>
<path fill-rule="evenodd" clip-rule="evenodd" d="M62.493 58.0073C62.3853 56.9123 62.2795 55.8141 62.1543 54.5244C63.5362 54.4455 64.6708 54.3816 66.0427 54.3032C66.1392 53.2769 66.2337 52.2624 66.3395 51.1396H70.0219V60.9939C68.8172 61.0968 67.6119 61.2002 66.4046 61.3052L66.4529 61.3676C66.2951 60.2246 66.1392 59.0826 65.9601 57.76C64.6934 57.8202 63.5513 57.873 62.4079 57.9258L62.493 58.0073Z" fill="white"/>
<path fill-rule="evenodd" clip-rule="evenodd" d="M55.0738 71.5959H47.9929V68.5558C49.1071 68.4865 50.1565 68.4234 51.3987 68.3479C51.4914 67.3454 51.5788 66.3685 51.6767 65.3018H55.0738V71.5959Z" fill="white"/>
<path fill-rule="evenodd" clip-rule="evenodd" d="M62.9264 61.3364H55.0735V58.2957H62.9411L62.8584 58.2207C62.8639 59.27 62.8676 60.3199 62.8713 61.3678L62.9264 61.3364Z" fill="white"/>
<path fill-rule="evenodd" clip-rule="evenodd" d="M66.8279 62.1543C66.7186 64.2077 66.6086 66.2605 66.4919 68.4484H62.9962V62.1652L62.9412 62.199C64.2524 62.2057 65.5637 62.2104 66.875 62.2151L66.8279 62.1543Z" fill="white"/>
<path fill-rule="evenodd" clip-rule="evenodd" d="M77.6203 55.0738C77.4552 54.0726 77.2914 53.0704 77.103 51.9268H81.0369V54.5856C79.9463 54.7323 78.7707 54.8911 77.5932 55.0495L77.6203 55.0738Z" fill="white"/>
<path fill-rule="evenodd" clip-rule="evenodd" d="M77.8661 55.4207C77.6818 56.319 77.4946 57.2139 77.2868 58.2213H73.9558V55.0742C75.2793 55.199 76.5844 55.3207 77.8896 55.4455L77.8661 55.4207Z" fill="white"/>
<path fill-rule="evenodd" clip-rule="evenodd" d="M55.0735 55.0738H58.2205V51.9268H55.0735V55.0738Z" fill="white"/>
<path fill-rule="evenodd" clip-rule="evenodd" d="M22.0295 48.3515H29.0383C29.1305 47.0414 29.2014 46.0282 29.2827 44.8457H33.0442C32.9289 45.85 32.8125 46.8549 32.6666 48.1023C31.6265 48.16 30.5396 48.2216 29.1766 48.2965C29.2406 49.5656 29.2989 50.7458 29.3577 51.9266L29.4021 51.8844H22.0295V48.3515Z" fill="white"/>
<path fill-rule="evenodd" clip-rule="evenodd" d="M44.0416 51.1396C44.0478 52.1877 44.0533 53.2372 44.0588 54.2867C41.4882 54.1845 38.9194 54.0842 36.1912 53.9771V51.1396H44.0416Z" fill="white"/>
<path fill-rule="evenodd" clip-rule="evenodd" d="M18.0957 58.2213H22.0295V55.0742H18.0957V58.2213Z" fill="white"/>
<path fill-rule="evenodd" clip-rule="evenodd" d="M29.322 51.3879C33.1268 50.8396 33.2804 50.9579 32.9074 54.2867H29.1101C29.1981 53.3012 29.2836 52.324 29.3697 51.3488L29.322 51.3879Z" fill="white"/>
<path fill-rule="evenodd" clip-rule="evenodd" d="M14.725 23.1641H25.4326V12.95H14.725V23.1641ZM11.0146 26.7502H29.1102V9.44141H11.0146V26.7502Z" fill="white"/>
<path fill-rule="evenodd" clip-rule="evenodd" d="M14.713 86.1987H25.4611V75.9128H14.713V86.1987ZM11.0146 89.6916H29.1102V72.3828H11.0146V89.6916Z" fill="white"/>
<path fill-rule="evenodd" clip-rule="evenodd" d="M81.5265 23.1967H92.3399V12.9316H81.5265V23.1967ZM77.8896 26.7502H95.9852V9.44141H77.8896V26.7502Z" fill="white"/>
</svg>
