<svg width="65" height="65" viewBox="0 0 65 65" fill="none" xmlns="http://www.w3.org/2000/svg">
<circle cx="37" cy="36" r="28" fill="#CAF2F0"/>
<path fill-rule="evenodd" clip-rule="evenodd" d="M36.8339 25.3128L36.9819 8.84798C37.426 8.70355 37.8701 8.55912 38.3143 8.27027C40.3868 6.97041 41.275 4.37071 39.9427 2.20429C38.6103 0.182294 35.7976 -0.684274 33.5771 0.615578C31.3565 1.91543 30.6164 4.65956 31.9487 6.68156C32.5408 7.98141 33.5771 8.55912 34.7614 8.84798L34.4653 25.1684C35.3535 25.1684 36.0937 25.1684 36.8339 25.3128Z" fill="#55D6D2"/>
<path fill-rule="evenodd" clip-rule="evenodd" d="M42.7557 31.2339C44.8283 34.989 43.4959 39.6107 39.795 41.7771C35.9461 43.9435 31.3569 42.6437 28.9884 39.033C26.9158 35.2779 28.1001 30.6562 31.9491 28.4897C35.798 26.4677 40.5352 27.4787 42.7557 31.2339Z" fill="#55D6D2"/>
<path fill-rule="evenodd" clip-rule="evenodd" d="M29.4326 27.4792L23.6592 21.702C23.9553 21.2688 24.1033 20.8355 24.2513 20.5466C24.8435 18.0913 23.3631 15.6361 20.9945 15.0583C18.4779 14.3362 16.1093 15.7805 15.3692 18.2358C14.629 20.5466 16.1093 23.0019 18.626 23.5796C19.8102 24.0129 20.9945 23.724 22.0308 23.1463L27.9522 29.0679C28.2483 28.6346 28.8405 28.0569 29.4326 27.4792Z" fill="#55D6D2"/>
<path fill-rule="evenodd" clip-rule="evenodd" d="M25.8794 34.2674L9.00328 33.9785C8.85524 33.6897 8.85524 33.4008 8.55917 32.9675C7.0788 30.8011 4.41415 30.079 2.1936 31.3788C0.121092 32.6787 -0.61909 35.4228 0.565201 37.4448C1.89753 39.4668 4.71022 40.3333 6.93077 39.0335C8.11506 38.3113 8.7072 37.4448 9.00328 36.4338L25.8794 36.5782C25.8794 35.8561 25.8794 34.9895 25.8794 34.2674Z" fill="#55D6D2"/>
<path fill-rule="evenodd" clip-rule="evenodd" d="M28.1 41.3457L25.4354 43.6566C25.1393 43.3677 24.6952 43.2233 24.2511 43.0788C21.8825 42.5011 19.3659 43.9454 18.6257 46.2563C18.0335 48.5671 19.5139 51.0224 21.8825 51.6001C24.3991 52.4667 26.9157 50.8779 27.5079 48.5671C27.8039 47.2672 27.8039 46.2563 27.0638 45.1008L29.7284 42.9344C29.2843 42.6456 28.6922 42.0678 28.1 41.3457Z" fill="#55D6D2"/>
<path fill-rule="evenodd" clip-rule="evenodd" d="M35.0578 44.9561L34.9097 56.2214C34.4656 56.3659 34.0215 56.3659 33.5774 56.6547C31.5049 57.9546 30.7647 60.6987 31.949 62.7207C33.2813 64.8871 35.946 65.6093 38.1665 64.4538C40.239 63.0096 41.1273 60.2654 39.7949 58.2434C39.0547 57.088 38.1665 56.5103 37.1303 56.2214V44.9561C36.5381 45.1005 35.7979 45.1005 35.0578 44.9561Z" fill="#55D6D2"/>
<path fill-rule="evenodd" clip-rule="evenodd" d="M42.4595 42.6445L54.3024 54.4876C54.0063 54.9209 53.8583 55.3541 53.7102 55.7874C52.9701 57.9538 54.4504 60.5536 56.967 61.1313C59.3356 61.8534 61.8522 60.2647 62.4444 57.9538C63.1846 55.643 61.7042 53.1877 59.3356 52.61C58.0033 52.1767 56.819 52.3212 55.7828 53.0433L44.0879 41.2002C43.4957 41.7779 43.0516 42.2112 42.4595 42.6445Z" fill="#55D6D2"/>
<path fill-rule="evenodd" clip-rule="evenodd" d="M45.8645 36.0004L55.931 36.1448C56.079 36.5781 56.2271 37.0114 56.5231 37.3002C57.8555 39.4667 60.5201 40.3332 62.7407 39.0334C64.8132 37.5891 65.7014 34.845 64.3691 32.823C63.0367 30.6566 60.224 29.9344 58.0035 31.2343C56.8192 31.9564 56.2271 32.823 55.931 33.9784L45.8645 33.6895C46.0125 34.4117 46.0125 35.2783 45.8645 36.0004Z" fill="#55D6D2"/>
<path fill-rule="evenodd" clip-rule="evenodd" d="M43.6438 28.7801L47.7888 24.7361C48.2329 25.0249 48.677 25.1694 49.1211 25.3138C51.4897 26.0359 53.8583 24.5916 54.5985 22.1364C55.3387 19.8255 53.8583 17.3702 51.4897 16.7925C48.9731 16.0704 46.4565 17.5147 45.8643 19.8255C45.4202 21.1254 45.5683 22.2808 46.3084 23.2918L42.0154 27.1913C42.6075 27.6246 43.0516 28.2023 43.6438 28.7801Z" fill="#55D6D2"/>
</svg>
