<svg width="65" height="65" viewBox="0 0 65 65" fill="none" xmlns="http://www.w3.org/2000/svg">
<circle cx="37" cy="37" r="28" fill="#CAF2F0"/>
<g clip-path="url(#clip0)">
<path fill-rule="evenodd" clip-rule="evenodd" d="M61.2276 52.0005C58.616 52.9686 31.9196 62.0962 31.9196 52.5537C31.9196 51.7239 40.0446 54.4899 44.9776 53.2452C48.75 52.2771 48.1696 48.9579 46.2834 48.543C44.2522 48.1282 32.2098 43.9792 27.2767 43.9792C24.9553 43.8409 19.0067 44.809 16.1049 45.2239C15.0893 45.3622 14.5089 45.3622 14.5089 46.3303C14.2187 50.4792 14.9442 58.9154 14.654 63.3409C14.654 63.4792 14.7991 64.7239 15.8147 63.8941C17.2656 62.7877 17.4107 61.8196 19.1518 62.0962C33.5156 65.2771 44.5424 69.0111 63.5491 57.3941C66.8861 53.7984 64.1294 50.3409 61.2276 52.0005Z" fill="#55D6D2"/>
<path fill-rule="evenodd" clip-rule="evenodd" d="M39.3192 8.71289C32.0647 8.71289 26.4062 14.1065 26.4062 20.7448C26.4062 25.032 28.0022 27.5214 29.4531 29.3193C31.0491 31.3937 33.2254 36.9257 33.5156 39.2767C33.5156 39.9682 33.8058 41.0746 36.1272 41.9044C36.4174 42.3193 36.7076 42.7342 37.1429 43.0108C37.5781 43.1491 37.8683 43.1491 38.1585 43.1491H40.625C40.9152 43.1491 41.2054 43.1491 41.4955 43.0108C42.0759 42.7342 42.3661 42.3193 42.6563 41.9044C44.9777 41.0746 45.2679 39.9682 45.2679 39.2767C45.558 37.064 47.7344 31.532 49.3304 29.3193C50.6362 27.5214 52.5223 24.8937 52.5223 20.7448C52.3772 14.2448 46.5737 8.71289 39.3192 8.71289Z" fill="#55D6D2"/>
<path fill-rule="evenodd" clip-rule="evenodd" d="M39.8995 0.414894C39.8995 0.138298 39.7544 0 39.6093 0C39.3191 0 39.174 0 39.174 0.414894L38.8839 2.35106C38.8839 2.48936 38.8839 2.62766 38.8839 2.76596L38.7388 3.87234C38.7388 4.28723 39.0289 4.42553 39.4642 4.42553C39.8995 4.42553 40.0446 4.28723 40.0446 3.87234L40.1897 2.76596C40.1897 2.62766 40.1897 2.48936 40.0446 2.48936L39.8995 0.414894Z" fill="#FFFAB8"/>
<path fill-rule="evenodd" clip-rule="evenodd" d="M32.3548 1.65978C32.2098 1.52148 32.0647 1.52148 31.9196 1.52148C31.6294 1.52148 31.6294 1.65978 31.6294 1.93638L32.0647 4.14914C32.0647 4.14914 32.2098 4.28744 32.2098 4.42574L32.645 5.53212C32.645 5.94702 32.9352 5.94702 33.3705 5.80872C33.8057 5.67042 33.9508 5.39383 33.8057 4.84063L33.5156 3.87255C33.3705 3.73425 33.3705 3.59595 33.3705 3.45765L32.3548 1.65978Z" fill="#FFFAB8"/>
<path fill-rule="evenodd" clip-rule="evenodd" d="M25.826 5.53223L27.5671 7.0535C27.7122 7.0535 27.7122 7.1918 27.8573 7.1918L28.5827 8.15989C28.7278 8.43648 28.7278 8.71308 28.4376 9.12797C28.1474 9.40457 27.8573 9.40457 27.422 8.98967L26.6966 8.29818C26.5515 8.29818 26.5515 8.15989 26.4064 8.02159L25.2457 6.36201C24.9555 6.22372 25.1006 6.08542 25.2457 5.80882C25.5358 5.53223 25.6809 5.53223 25.826 5.53223Z" fill="#FFFAB8"/>
<path fill-rule="evenodd" clip-rule="evenodd" d="M47.5894 1.93638C47.7345 1.79808 47.5894 1.52148 47.4443 1.52148C47.1542 1.52148 47.0091 1.52148 46.864 1.65978L45.7033 3.45765C45.7033 3.59595 45.5582 3.59595 45.5582 3.73425L45.1229 4.70234C44.9778 5.11723 44.9778 5.53212 45.4131 5.67042C45.8484 5.94702 46.1385 5.80872 46.4287 5.39382L46.864 4.42574C46.864 4.28744 47.0091 4.14914 47.0091 4.14914L47.5894 1.93638Z" fill="#FFFAB8"/>
<path fill-rule="evenodd" clip-rule="evenodd" d="M54.1182 6.36181L52.6673 8.02138C52.6673 8.02138 52.5223 8.15968 52.5223 8.29798L51.7968 8.85117C51.5066 9.12776 51.0714 9.12776 50.6361 8.85117C50.3459 8.57457 50.3459 8.29798 50.6361 7.88308L51.3615 7.19159C51.5066 7.0533 51.6517 6.915 51.6517 6.915L53.683 5.80861C53.8281 5.67032 53.9731 5.67032 54.1182 5.94691C54.4084 6.08521 54.5535 6.22351 54.1182 6.36181Z" fill="#FFFAB8"/>
<path fill-rule="evenodd" clip-rule="evenodd" d="M58.4709 12.7227L56.4397 13.8291C56.4397 13.9674 56.2946 13.9674 56.1495 13.9674L55.1339 14.244C54.6986 14.3823 54.4084 14.244 53.9731 13.9674C53.9731 13.5525 53.9731 13.2759 54.4084 12.9993L55.5691 12.5844C55.5691 12.5844 55.8593 12.5844 56.0044 12.4461L58.0356 12.0312C58.3258 12.0312 58.4709 12.0312 58.4709 12.3078C58.616 12.4461 58.616 12.7227 58.4709 12.7227Z" fill="#FFFAB8"/>
<path fill-rule="evenodd" clip-rule="evenodd" d="M59.7767 20.3306C60.0669 20.3306 60.0669 20.1923 60.0669 20.054C60.0669 19.7774 60.0669 19.6391 59.7767 19.6391L57.6004 19.2242H57.3102L56.1495 19.0859C55.7143 19.0859 55.4241 19.3625 55.4241 19.7774C55.4241 20.054 55.7143 20.4689 56.1495 20.4689H57.3102C57.3102 20.4689 57.4553 20.4689 57.6004 20.4689L59.7767 20.3306Z" fill="#FFFAB8"/>
<path fill-rule="evenodd" clip-rule="evenodd" d="M4.64286 45.4993L0 45.2227L0.145089 63.8929H4.49777C5.3683 63.8929 6.09375 63.3397 6.09375 62.3716L5.94866 46.8822C6.09375 46.1907 5.3683 45.4993 4.64286 45.4993Z" fill="#55D6D2"/>
<path fill-rule="evenodd" clip-rule="evenodd" d="M11.6072 45.361L6.96436 45.2227L7.25453 63.8929L11.6072 63.7546C12.4777 63.7546 13.2032 63.2014 13.2032 62.3716L13.0581 46.8822C13.2032 46.0524 12.4777 45.4992 11.6072 45.361Z" fill="#55D6D2"/>
<path fill-rule="evenodd" clip-rule="evenodd" d="M46.5738 27.6595C44.8327 30.0106 44.1072 35.5425 43.3818 36.0957H35.4019C34.8215 35.5425 33.951 30.0106 32.2099 27.6595C31.0492 25.9999 29.7434 23.9255 29.7434 20.7446C29.7434 15.9042 34.0961 11.8936 39.4644 11.8936C44.8327 11.8936 49.1854 15.9042 49.1854 20.7446C49.0403 23.9255 47.7345 25.9999 46.5738 27.6595Z" fill="#FFFAB8"/>
<path fill-rule="evenodd" clip-rule="evenodd" d="M21.3282 11.3398L23.3594 11.893C23.5045 12.0313 23.6496 12.0313 23.7947 12.1696L24.8103 12.5845C25.2456 12.7228 25.2456 12.9994 25.1005 13.5526C24.9554 13.8292 24.5201 14.1058 24.0849 13.8292L23.2143 13.5526C23.0692 13.5526 23.0692 13.4143 22.7791 13.4143L21.038 12.1696C20.7478 12.0313 20.7478 11.893 20.8929 11.7547C21.038 11.3398 21.1831 11.3398 21.3282 11.3398Z" fill="#FFFAB8"/>
<path fill-rule="evenodd" clip-rule="evenodd" d="M19.5871 18.5319C19.2969 18.5319 19.1519 18.6702 19.1519 18.8084C19.1519 19.085 19.2969 19.2233 19.442 19.2233L21.4733 19.6382C21.7635 19.6382 21.9086 19.6382 21.9086 19.6382H23.0693C23.5045 19.7765 23.7947 19.4999 23.7947 19.085C23.7947 18.6702 23.6496 18.5319 23.2144 18.3936H22.0536C21.9086 18.3936 21.9086 18.3936 21.6184 18.3936L19.5871 18.5319Z" fill="#FFFAB8"/>
</g>
<defs>
<clipPath id="clip0">
<rect width="65" height="65" fill="white"/>
</clipPath>
</defs>
</svg>
